<svg xmlns="http://www.w3.org/2000/svg" version="1.1" viewBox="0 0 255.2 120.6" fill="#d23264">
    <title>SeLoger Neuf : immobilier neuf</title>
    <path fill="#C9406D" d="M94.2,119.5c-0.3,0.3-0.7,0.4-1.1,0.4h-3.5c-0.4,0-0.7-0.1-0.9-0.4c-0.2-0.3-0.3-0.6-0.3-1l4.3-24c0.3-1.8,0.4-3.4,0.3-4.6c-0.1-1.2-0.4-2.2-0.9-3c-0.5-0.7-1.3-1.3-2.2-1.6c-1-0.3-2.1-0.5-3.5-0.5c-1.6,0-3.2,0.3-5,0.8c-1.8,0.5-3.6,1.2-5.4,2l-5.5,30.8c-0.1,0.4-0.3,0.7-0.6,1c-0.3,0.3-0.7,0.4-1.1,0.4h-3.6c-0.4,0-0.7-0.1-0.9-0.4c-0.2-0.3-0.3-0.6-0.2-1l6.6-37.3c0.1-0.4,0.3-0.7,0.6-1c0.3-0.3,0.7-0.4,1.1-0.4H76c0.4,0,0.7,0.1,0.9,0.4c0.2,0.3,0.3,0.6,0.2,1l-0.3,1.4c2.2-1.1,4.3-2,6.2-2.6c1.9-0.6,3.9-0.9,6.1-0.9c4.4,0,7.4,1.3,9,3.9c1.6,2.6,1.9,6.4,1,11.3l-4.3,24C94.8,118.9,94.6,119.2,94.2,119.5z"></path>
    <path fill="#C9406D" d="M133.9,100.3c-0.2,1.1-0.8,1.6-1.7,1.6h-24.4l-0.2,1c-0.8,4.3-0.5,7.4,0.9,9.2c1.4,1.8,3.8,2.7,7.1,2.7c2.1,0,4.4-0.1,6.9-0.2c2.4-0.1,4.5-0.3,6.3-0.6h0.4c0.3,0,0.6,0.1,0.8,0.2c0.2,0.1,0.3,0.4,0.2,0.8l-0.4,2.5c-0.1,0.5-0.3,0.9-0.5,1.1c-0.2,0.3-0.7,0.4-1.3,0.5c-2.2,0.4-4.3,0.7-6.4,0.9c-2.1,0.2-4.4,0.3-6.9,0.3c-2.1,0-4.1-0.3-6-0.8c-1.9-0.6-3.5-1.5-4.8-2.9c-1.3-1.3-2.2-3.1-2.8-5.4c-0.6-2.2-0.5-5.1,0.1-8.5l1.2-6.6c0.9-5.3,3.1-9.4,6.4-12.5c3.3-3.1,7.6-4.6,12.9-4.6c2.7,0,4.9,0.4,6.8,1.2c1.9,0.8,3.3,1.9,4.4,3.4c1.1,1.5,1.8,3.3,2.1,5.4c0.3,2.1,0.2,4.5-0.2,7.1L133.9,100.3z M128.2,96.3c0.7-4.1,0.5-7.1-0.8-8.8c-1.3-1.8-3.5-2.6-6.7-2.6c-3.2,0-5.8,0.9-7.8,2.8c-2,1.9-3.4,4.8-4.1,8.7l-0.1,0.7h19.4L128.2,96.3z"></path>
    <path fill="#C9406D" d="M164.6,119.5c-0.3,0.3-0.7,0.4-1.1,0.4h-3.7c-0.4,0-0.7-0.1-0.9-0.4c-0.2-0.3-0.3-0.6-0.2-1l0.2-1.4c-2.2,1.1-4.3,2-6.1,2.6c-1.9,0.6-3.9,0.9-6.1,0.9c-4.4,0-7.4-1.3-9-3.9c-1.6-2.6-1.9-6.4-1-11.3l4.3-24c0.1-0.4,0.3-0.7,0.6-1c0.3-0.3,0.7-0.4,1.1-0.4h3.5c0.4,0,0.7,0.1,0.9,0.4c0.2,0.3,0.3,0.6,0.3,1l-4.3,24c-0.3,1.8-0.4,3.4-0.3,4.6c0.1,1.2,0.4,2.2,0.9,3c0.5,0.7,1.3,1.3,2.2,1.6c0.9,0.3,2.1,0.5,3.5,0.5c1.6,0,3.2-0.3,5-0.8c1.8-0.5,3.6-1.2,5.4-2l5.5-30.8c0.1-0.4,0.3-0.7,0.6-1c0.3-0.3,0.7-0.4,1.1-0.4h3.6c0.4,0,0.7,0.1,0.9,0.4c0.2,0.3,0.3,0.6,0.2,1l-6.6,37.3C165.2,118.9,165,119.2,164.6,119.5z"></path><path fill="#C9406D" d="M198.6,69.5h-3.5c-1.7,0-2.9,0.3-3.7,1c-0.8,0.7-1.3,2-1.7,4l-0.9,5.3h7.7c0.4,0,0.7,0.1,0.9,0.4c0.2,0.2,0.3,0.6,0.2,1l-0.5,2.8c-0.1,0.8-0.7,1.2-1.6,1.2h-7.7l-5.9,33.3c-0.1,0.4-0.3,0.7-0.6,1c-0.3,0.3-0.7,0.4-1.1,0.4h-3.6c-0.4,0-0.7-0.1-0.9-0.4c-0.2-0.3-0.3-0.6-0.3-1l5.9-33.3l-6.9-0.8c-0.9-0.1-1.3-0.5-1.2-1.3l0.4-2c0.1-0.4,0.3-0.7,0.6-1c0.3-0.2,0.7-0.4,1.1-0.4h7.1l0.9-5.3c0.3-1.9,0.9-3.6,1.6-4.9c0.7-1.3,1.6-2.4,2.6-3.1c1-0.8,2.2-1.3,3.5-1.6c1.3-0.3,2.8-0.5,4.4-0.5c1,0,1.8,0,2.4,0.2c0.6,0.1,1.2,0.2,1.6,0.3c0.9,0.2,1.3,0.6,1.2,1.2l-0.4,2.4C200,69.1,199.5,69.5,198.6,69.5z"></path>
    <path fill="#C9406D" d="M40.6,6.1C38.5,5.5,36.3,5,34,4.7c-2.3-0.4-5.1-0.6-8.5-0.6c-5.9,0-10.5,1.1-13.7,3.3c-3.2,2.2-5.1,5.4-5.9,9.7c-0.5,2.7-0.3,5.1,0.7,7.2c0.9,2,2.4,3.8,4.5,5.1L21.3,36c1.2,0.8,2,1.5,2.5,2.1c0.5,0.7,0.7,1.6,0.5,2.4c-0.2,1.4-0.9,2.4-1.8,3.1c-0.9,0.7-2.5,1-4.8,1c-0.7,0-1.7,0-2.9-0.1c-1.2-0.1-2.5-0.1-3.9-0.3C9.4,44.1,8,44,6.6,43.9c-1.4-0.1-2.7-0.3-3.8-0.5H2.5c-0.3,0-0.6,0.1-0.8,0.3c-0.2,0.2-0.3,0.4-0.4,0.7L0,51.5c-0.1,0.6,0.1,0.9,0.7,1.1c1,0.3,2.2,0.5,3.5,0.8c1.3,0.2,2.6,0.4,4,0.6c1.4,0.2,2.8,0.3,4.1,0.4c1.3,0.1,2.6,0.1,3.8,0.1c3.1,0,5.9-0.4,8.3-1.1c2.4-0.7,4.5-1.7,6.2-3c1.7-1.3,3.1-2.8,4.1-4.5c1-1.7,1.7-3.6,2.1-5.6c0.2-1.1,0.3-2.2,0.3-3.4c0-1.1-0.3-2.1-0.7-3.2c-0.4-1.1-1.1-2.1-2-3.1c-0.9-1-2.1-2.1-3.7-3.1l-9.8-6.3c-0.9-0.6-1.5-1.1-1.9-1.6c-0.6-0.6-0.8-1.4-0.6-2.3c0.3-1.6,1.2-2.3,1.9-2.6c0.9-0.4,2.2-0.6,4.1-0.6c1.1,0,2.4,0,3.9,0.1c1.4,0.1,2.8,0.2,4.2,0.3c1.4,0.1,2.7,0.3,3.8,0.4c1.1,0.1,2,0.2,2.6,0.3H39c0.4,0,0.8-0.1,1-1l1.3-7.2C41.4,6.6,41.2,6.3,40.6,6.1z"></path>
    <path fill="#C9406D" d="M108,53.9c-0.6,0.1-1.4,0.3-2.4,0.4c-1.2,0.2-2.6,0.3-3.9,0.4c-1.1,0.1-2.8,0.1-3.8,0.1c-2.3,0-4.6-0.2-6.6-0.6c-2.1-0.4-3.9-1.1-5.3-2.3c-1.4-1.1-2.4-2.7-3.1-4.8c-0.6-2.1-0.6-4.8,0-8.1l6.7-37.7c0.1-0.4,0.3-0.7,0.6-1C90.6,0.1,91,0,91.3,0h9.6c0.4,0,0.7,0.1,0.9,0.4c0.2,0.3,0.3,0.6,0.3,1l-6.7,37.7c-0.3,1.9-0.2,3.2,0.4,3.9c0.6,0.7,1.7,1.1,3.4,1.1h10.5c0.4,0,0.7,0.1,0.9,0.4c0.2,0.3,0.3,0.6,0.3,1l-1.2,6.8C109.6,53.2,109,53.7,108,53.9z"></path><path fill="#C9406D" d="M76.3,35.3c-0.2,1.2-0.8,1.8-1.8,1.8H51.2l0,0.1c-0.2,1-0.2,2-0.2,3c0.1,1,0.3,1.8,0.8,2.5c0.5,0.7,1.1,1.3,2,1.7c0.9,0.4,2,0.7,3.5,0.7c1.2,0,2.4,0,3.7-0.1c1.3,0,2.6-0.1,3.9-0.1c1.3,0,2.5-0.1,3.6-0.2c1.1-0.1,2.1-0.2,2.8-0.3h0.2c0.9,0,1.3,0.4,1.2,1.2l-1,5.6c-0.1,0.6-0.3,1-0.5,1.3c-0.2,0.3-0.7,0.5-1.4,0.7c-2.4,0.6-4.8,1-7.1,1.3c-2.3,0.3-5,0.4-8.2,0.4c-2.2,0-4.3-0.3-6.4-0.9c-2.1-0.6-3.9-1.7-5.4-3.1c-1.5-1.5-2.6-3.4-3.2-5.8c-0.7-2.4-0.7-5.4-0.1-8.9l0.9-5.1c0.5-2.9,1.4-5.6,2.6-8c1.2-2.4,2.8-4.4,4.7-6.1c1.9-1.7,4-2.9,6.5-3.8c2.4-0.9,5.1-1.4,8-1.4c3,0,5.5,0.5,7.6,1.5c2.1,1,3.7,2.3,5,4c1.2,1.7,2,3.7,2.3,6.1c0.3,2.3,0.3,4.9-0.2,7.7L76.3,35.3z M65.8,29.4c0.5-2.7,0.2-4.8-0.7-6.1c-0.9-1.3-2.4-2-4.5-2c-2,0-3.8,0.7-5.2,2c-1.5,1.4-2.4,3.4-2.9,6.1l-0.1,0.3h13.3L65.8,29.4z"></path><path fill="#C9406D" d="M149.3,35.9c-0.5,2.9-1.4,5.5-2.6,7.9c-1.2,2.3-2.7,4.3-4.5,5.9c-1.8,1.6-3.9,2.9-6.4,3.8c-2.4,0.9-5.1,1.3-8.1,1.3c-3,0-5.5-0.5-7.6-1.3c-2.1-0.9-3.8-2.2-5.1-3.8c-1.3-1.6-2.1-3.6-2.5-5.9c-0.4-2.3-0.3-5,0.2-7.9l0.9-5.1c0.5-2.9,1.4-5.5,2.6-7.9c1.2-2.3,2.7-4.3,4.6-5.9c1.8-1.6,4-2.9,6.4-3.8c2.4-0.9,5.1-1.4,8.1-1.4c3,0,5.5,0.5,7.6,1.4c2.1,0.9,3.8,2.2,5,3.8c1.3,1.6,2.1,3.6,2.5,5.9c0.4,2.3,0.3,5-0.2,7.9L149.3,35.9z M138.3,30.8c1-5.9-0.6-8.9-4.9-8.9c-2.1,0-3.9,0.7-5.3,2.2c-1.4,1.5-2.3,3.7-2.8,6.7l-0.9,5.1c-0.5,3-0.4,5.2,0.5,6.7c0.8,1.5,2.3,2.3,4.5,2.3c4.3,0,7-3,8-9L138.3,30.8z"></path>
    <path fill="#C9406D" d="M192.5,18.5c-0.1,0.5-0.3,0.9-0.5,1.1c-0.3,0.2-0.6,0.4-1.1,0.5l-2.4,0.7c0.3,0.7,0.5,1.5,0.7,2.6c0.1,1,0.1,2,0,2.8l-0.1,0.6c-0.8,4.8-3,8.2-6.5,10.4c-3.5,2.2-8.1,3.3-13.9,3.3c-1.7,0-3.2-0.1-4.5-0.3c-1.3-0.2-2.3-0.5-2.9-0.8c-0.4,0.2-0.7,0.5-0.9,0.8c-0.2,0.3-0.3,0.6-0.4,0.9c-0.1,0.6,0,1,0.2,1.3c0.2,0.3,0.8,0.5,1.6,0.7l7.9,1.8c3,0.7,5.6,1.3,7.7,2c2.1,0.7,3.7,1.4,4.9,2.3c1.2,0.9,2,1.9,2.3,3.1c0.4,1.2,0.4,2.7,0.1,4.4l-0.1,0.6c-1.4,7.9-8.5,11.9-21.2,11.9c-6.1,0-10.5-1-13.3-3.1c-2.8-2-3.8-5-3.2-8.8l0.1-0.6c0.3-1.5,0.9-2.9,1.8-4.3c0.9-1.4,2.3-2.7,4-3.9c-1.2-0.7-2-1.7-2.3-3c-0.4-1.3-0.4-2.5-0.2-3.8c0.2-1.4,0.8-2.6,1.5-3.6c0.8-1,1.7-1.9,2.8-2.6c-1-1-1.6-2.4-1.9-4c-0.2-1.7-0.2-3.2,0-4.7l0.1-0.6c0.7-4.1,2.8-7.5,6.1-10c3.3-2.5,8.2-3.8,14.6-3.8h18.2c0.5,0,0.9,0.2,1.2,0.5c0.3,0.4,0.4,0.8,0.3,1.3L192.5,18.5z M172.7,56.6c0.1-0.3,0-0.7-0.1-1c-0.1-0.3-0.4-0.6-0.9-0.9c-0.5-0.3-1.2-0.6-2.1-0.9c-0.9-0.3-2.2-0.6-3.8-1l-5.2-1.2c-0.5,0.6-1,1.3-1.4,2c-0.4,0.7-0.7,1.7-0.9,3l-0.1,0.6c-0.2,1.3,0.1,2.2,1,2.8c0.9,0.6,2.8,0.9,5.6,0.9c1.5,0,2.7-0.1,3.7-0.3c1-0.2,1.7-0.4,2.3-0.8c0.6-0.3,1-0.7,1.2-1.2c0.3-0.5,0.4-1,0.5-1.5L172.7,56.6z M177.6,26.2c0.3-1.5,0-2.8-0.7-3.8c-0.7-1-2.3-1.5-4.9-1.5c-2.6,0-4.4,0.5-5.5,1.5c-1.1,1-1.8,2.2-2,3.8l-0.1,0.6c-0.1,0.6-0.1,1.3-0.1,1.9c0.1,0.6,0.3,1.2,0.7,1.6c0.4,0.5,1,0.9,1.8,1.2c0.8,0.3,1.9,0.4,3.3,0.4c2.6,0,4.4-0.5,5.4-1.4c1-0.9,1.7-2.2,2-3.7L177.6,26.2z"></path><path fill="#C9406D" d="M226,35.3c-0.2,1.2-0.8,1.8-1.8,1.8h-23.3l0,0.1c-0.2,1-0.2,2-0.2,3c0.1,1,0.3,1.8,0.8,2.5c0.5,0.7,1.1,1.3,2,1.7c0.9,0.4,2,0.7,3.5,0.7c1.2,0,2.4,0,3.7-0.1c1.3,0,2.6-0.1,3.9-0.1c1.3,0,2.5-0.1,3.6-0.2c1.1-0.1,2.1-0.2,2.8-0.3h0.2c0.9,0,1.3,0.4,1.2,1.2l-1,5.6c-0.1,0.6-0.3,1-0.5,1.3c-0.2,0.3-0.7,0.5-1.4,0.7c-2.4,0.6-4.8,1-7.1,1.3c-2.3,0.3-5,0.4-8.2,0.4c-2.2,0-4.3-0.3-6.4-0.9c-2.1-0.6-3.9-1.7-5.4-3.1c-1.5-1.5-2.6-3.4-3.2-5.8c-0.6-2.4-0.7-5.4-0.1-8.9l0.9-5.1c0.5-2.9,1.4-5.6,2.6-8c1.2-2.4,2.8-4.4,4.7-6.1c1.9-1.7,4-2.9,6.5-3.8c2.4-0.9,5.1-1.4,8-1.4c3,0,5.5,0.5,7.6,1.5c2.1,1,3.7,2.3,5,4c1.2,1.7,2,3.7,2.3,6.1c0.3,2.3,0.3,4.9-0.2,7.7L226,35.3z M215.5,29.4c0.5-2.7,0.2-4.8-0.7-6.1c-0.9-1.3-2.4-2-4.5-2c-2,0-3.8,0.7-5.2,2c-1.5,1.4-2.4,3.4-2.9,6.1l-0.1,0.3h13.3L215.5,29.4z"></path><path fill="#C9406D" d="M253.5,21.3c-0.2,0.3-0.5,0.4-0.9,0.4h-0.6c-1.8,0-3.5,0.2-5.2,0.7c-1.6,0.5-3.2,1.1-4.7,1.8l-5,28.5c-0.1,0.4-0.3,0.7-0.6,1.1c-0.3,0.3-0.7,0.5-1.1,0.5h-8.8c-0.4,0-0.7-0.2-1-0.5c-0.3-0.3-0.4-0.7-0.3-1.1l6.8-38.8c0.1-0.4,0.3-0.7,0.6-1c0.3-0.3,0.7-0.4,1.1-0.4h8.7c0.4,0,0.7,0.1,0.9,0.4c0.2,0.3,0.3,0.6,0.3,1l-0.3,1.5c1.6-1.1,3.3-2,5.1-2.6c1.8-0.6,3.6-0.9,5.4-0.9c0.4,0,0.7,0.1,0.9,0.4c0.2,0.3,0.3,0.6,0.3,1l-1.2,7C253.9,20.6,253.8,21,253.5,21.3z"></path>
</svg>
