<svg x="0px" y="0px" width="93px" height="22px" viewBox="0 0 93 22" style="fill: E00034;">
    <path d="M21.5774248,9.36663947 C21.7334865,8.49997396 21.6587342,7.85355543 21.3528403,7.42674734 C21.0469463,7.00216717 20.5587619,6.78892226 19.8892705,6.78892226 C19.2187955,6.78892226 18.6456951,7.00598648 18.1689858,7.43947837 C17.6922764,7.87265199 17.3772024,8.51525121 17.2240915,9.36663947 L17.2067148,9.45957606 L21.5610318,9.45957606 L21.5774248,9.36663947 Z M25.0222564,11.2244164 C24.9560285,11.5958445 24.7540664,11.7823542 24.4193207,11.7823542 L16.7886925,11.7823542 L16.780496,11.8281859 C16.7221368,12.1496447 16.7050881,12.4653745 16.7296776,12.7718742 C16.754595,13.0786923 16.8411502,13.3466807 16.9916383,13.5761577 C17.1417984,13.8065895 17.3594979,13.9918261 17.6457202,14.129003 C17.9316147,14.2677714 18.3139002,14.3362007 18.7929045,14.3362007 C19.17519,14.3362007 19.5830486,14.3288804 20.0168082,14.3129666 C20.45024,14.2976893 20.8794095,14.2817755 21.3049726,14.26618 C21.72988,14.2509027 22.1275749,14.2321245 22.4996967,14.2082538 C22.870835,14.1853379 23.1777125,14.1582844 23.4232801,14.1274117 L23.4950816,14.1274117 C23.7970412,14.1274117 23.9272019,14.2518576 23.8826129,14.4997946 L23.5619652,16.2786391 C23.5278677,16.4657853 23.4701642,16.6058268 23.3904941,16.6993999 C23.3098403,16.792973 23.1613195,16.863312 22.9459151,16.9097803 C22.146263,17.0969266 21.3715283,17.2376046 20.6210554,17.3311777 C19.8705824,17.4247509 18.9771622,17.4709009 17.9404669,17.4709009 C17.22278,17.4709009 16.5231254,17.3703257 15.8418311,17.1691753 C15.1602088,16.9686614 14.5743219,16.6354264 14.084826,16.1710618 C13.5940186,15.7063788 13.2418963,15.0908331 13.0294426,14.3247428 C12.8160054,13.5583342 12.8104317,12.6171921 13.0114103,11.5029079 L13.3041898,9.87715415 C13.4710709,8.9487431 13.7586047,8.10531174 14.1667911,7.34654179 C14.5743219,6.58809011 15.0848009,5.94485435 15.698556,5.41938069 C16.3106718,4.89231566 17.018195,4.48651378 17.8194863,4.19942884 C18.6204498,3.91298045 19.499772,3.76975626 20.4571251,3.76975626 C21.4289039,3.76975626 22.259047,3.92475666 22.9446036,4.23475747 C23.630488,4.54412173 24.1717859,4.97029328 24.5688251,5.51168073 C24.9655365,6.05370473 25.2202842,6.69598567 25.3340518,7.43947837 C25.4468359,8.18297108 25.4242135,8.99521139 25.265529,9.87715415 L25.0222564,11.2244164 Z M48.9383118,11.4334601 C48.7711029,12.3625077 48.4884871,13.1986187 48.0914478,13.9411566 C47.693425,14.6846493 47.1967162,15.3154723 46.599682,15.8339438 C46.0029757,16.353052 45.3075833,16.7559894 44.5125213,17.0418012 C43.718115,17.327613 42.8328913,17.4711555 41.8584895,17.4711555 C40.8837599,17.4711555 40.0503382,17.327613 39.359208,17.0418012 C38.6674221,16.7559894 38.1130098,16.353052 37.6946596,15.8339438 C37.2769652,15.3154723 37.0028737,14.6846493 36.8736966,13.9411566 C36.7428802,13.1986187 36.762224,12.3625077 36.9297608,11.4334601 L37.2222125,9.80802461 C37.3900771,8.878977 37.6720372,8.04286599 38.0694043,7.30032811 C38.4670992,6.55683541 38.9683981,5.92569413 39.573301,5.40690427 C40.1785317,4.88843269 40.8775305,4.48645012 41.6729204,4.19936518 C42.4669989,3.9129168 43.3518947,3.7696926 44.3266243,3.7696926 C45.3013539,3.7696926 46.1347756,3.9129168 46.8259058,4.19936518 C47.5176918,4.48645012 48.0681697,4.88843269 48.4783234,5.40690427 C48.888477,5.92569413 49.1576506,6.55683541 49.2878113,7.30032811 C49.4176441,8.04286599 49.3992839,8.878977 49.2317471,9.80802461 L48.9383118,11.4334601 Z M45.3561067,9.80802461 C45.6967539,7.91873835 45.1607017,6.97505006 43.7495896,6.97505006 C43.0515743,6.97505006 42.4774904,7.21121084 42.0276656,7.68321412 C41.5781687,8.15553569 41.2680126,8.86369976 41.0978529,9.80802461 L40.8044176,11.4334601 C40.6349137,12.3777849 40.6890107,13.0904048 40.9673644,13.570365 C41.2453902,14.0500069 41.7335746,14.2903053 42.4315899,14.2903053 C43.8433577,14.2903053 44.7203849,13.3370687 45.0633271,11.4334601 L45.3561067,9.80802461 Z M63.108907,5.88345891 C63.0793995,6.05373656 63.0213682,6.16990729 62.9384195,6.23165284 C62.8561264,6.29339838 62.7384245,6.34782357 62.5862971,6.39365531 L61.8036938,6.62663333 C61.9079535,6.84369756 61.98205,7.11359559 62.0276226,7.4395102 C62.0728674,7.76446998 62.0695888,8.06619562 62.0200818,8.34468711 L61.9863122,8.53056028 C61.7132043,10.0477819 60.9997796,11.1512447 59.8466938,11.8396757 C58.6945915,12.5284249 57.1769247,12.8740727 55.2956605,12.8740727 C54.7366581,12.8740727 54.2488015,12.8384257 53.8307792,12.7687233 C53.4130848,12.6990209 53.0927649,12.6172239 52.8704754,12.5249239 C52.7281839,12.6025832 52.6262193,12.6834253 52.5635979,12.7687233 C52.4996651,12.8540213 52.4583546,12.9510954 52.4393387,13.0593093 C52.4052412,13.2451825 52.4281915,13.3842691 52.5072059,13.4772057 C52.5858924,13.5701422 52.763265,13.6474833 53.0399794,13.7089106 L55.637947,14.2904008 C56.635299,14.5068285 57.4746222,14.7200734 58.1542772,14.9288624 C58.8342602,15.1379697 59.3683451,15.3773133 59.7588271,15.6488027 C60.1486534,15.9193373 60.4050404,16.2439788 60.5279882,16.6243186 C60.6515916,17.0033853 60.6630667,17.4709327 60.5620857,18.0285522 L60.528316,18.2141071 C60.0748848,20.7377174 57.7575659,22 53.5793101,22 C51.5859175,22 50.1331671,21.6744037 49.2213867,21.0241658 C48.310262,20.3745645 47.9646969,19.43756 48.1850193,18.2141071 L48.2184611,18.0285522 C48.3053441,17.5485921 48.4987819,17.0921843 48.7997579,16.6590107 C49.1010618,16.2255188 49.5423622,15.815261 50.1223477,15.4276009 C49.7338329,15.1955777 49.4803966,14.8744372 49.3636782,14.4641795 C49.2449927,14.0539217 49.2213867,13.6551219 49.2908931,13.2680983 C49.3692518,12.8349247 49.5374443,12.4555397 49.7954706,12.1293069 C50.0538248,11.8053019 50.3554566,11.5264921 50.6997102,11.2944689 C50.3751282,10.9688726 50.1731661,10.5439742 50.0928402,10.0169091 C50.0115308,9.49111721 50.013498,8.99524322 50.0971024,8.53056028 L50.1305442,8.34468711 C50.3672596,7.02957073 51.0334724,5.96875687 52.1265597,5.16320035 C53.2209584,4.35828038 54.812066,3.95597954 56.9015218,3.95597954 L62.8580936,3.95597954 C63.0331712,3.95597954 63.1669383,4.01390577 63.2577557,4.1300765 C63.3472617,4.24624724 63.3787363,4.38947143 63.3472617,4.55911253 L63.108907,5.88345891 Z M58.2398489,8.34468711 C58.3264041,7.8650452 58.2549305,7.46592711 58.0251002,7.14956078 C57.7952699,6.83160307 57.2579063,6.67246508 56.4120259,6.67246508 C55.5671291,6.67246508 54.9638655,6.83160307 54.6042024,7.14956078 C54.2438836,7.46592711 54.0209384,7.8650452 53.9340553,8.34468711 L53.9009414,8.53056028 C53.864221,8.73234726 53.8566802,8.92936009 53.8776633,9.12255362 C53.8986463,9.31702024 53.9743822,9.49111721 54.1058543,9.64484451 C54.2373264,9.80016319 54.4353542,9.92397255 54.6976427,10.0169091 C54.9592755,10.1092092 55.3218893,10.1556775 55.7841728,10.1556775 C56.6300532,10.1556775 57.2228252,10.0089522 57.5628167,9.7151835 C57.903136,9.42109649 58.1169011,9.02643427 58.2067349,8.53056028 L58.2398489,8.34468711 Z M56.6146438,18.0285522 C56.6346433,17.9197019 56.6264467,17.8156256 56.5877592,17.7153687 C56.5500552,17.6144752 56.4523527,17.5177193 56.2930125,17.4247827 C56.1343279,17.3318461 55.9041698,17.2389095 55.6018823,17.1466095 C55.2999227,17.0530364 54.8878018,16.9454591 54.3687985,16.8206949 L52.6655625,16.4489485 C52.4858949,16.6507355 52.3314726,16.8639804 52.2036069,17.0880467 C52.0750856,17.3130678 51.9750881,17.6259331 51.9029587,18.0285522 L51.8688612,18.2141071 C51.7967319,18.6173628 51.9098438,18.9149509 52.2101641,19.1090992 C52.5101566,19.3013379 53.1229281,19.3990486 54.0481508,19.3990486 C54.5422368,19.3990486 54.9451775,19.3719952 55.2582844,19.31757 C55.5707355,19.2631448 55.8215489,19.1816661 56.0077737,19.0737706 C56.1959657,18.9652385 56.3297329,18.8376098 56.4120259,18.6908846 C56.4943189,18.5428862 56.5513667,18.3850214 56.5815298,18.2141071 L56.6146438,18.0285522 Z M74.1065654,11.2244164 C74.0400097,11.5958445 73.8380475,11.7823542 73.5039575,11.7823542 L65.8726737,11.7823542 L65.8641493,11.8281859 C65.806118,12.1496447 65.7890692,12.4653745 65.8136588,12.7718742 C65.8382483,13.0786923 65.9257871,13.3466807 66.0756194,13.5761577 C66.2254517,13.8065895 66.443479,13.9918261 66.7300292,14.129003 C67.0155958,14.2677714 67.398537,14.3362007 67.8768857,14.3362007 C68.2591712,14.3362007 68.6673576,14.3288804 69.1004615,14.3129666 C69.5342211,14.2976893 69.9633907,14.2817755 70.3892816,14.26618 C70.8138611,14.2509027 71.2125396,14.2321245 71.5836779,14.2082538 C71.9548161,14.1853379 72.2616936,14.1582844 72.5072612,14.1274117 L72.5790627,14.1274117 C72.8813502,14.1274117 73.0108552,14.2518576 72.966594,14.4997946 L72.6459463,16.2786391 C72.6118488,16.4657853 72.5541453,16.6058268 72.4744752,16.6993999 C72.3934936,16.792973 72.2453006,16.863312 72.0292405,16.9097803 C71.230572,17.0969266 70.4555095,17.2376046 69.7050365,17.3311777 C68.9548914,17.4247509 68.0604876,17.4709009 67.024448,17.4709009 C66.3067611,17.4709009 65.6074344,17.3703257 64.9258122,17.1691753 C64.24419,16.9686614 63.658303,16.6354264 63.1681514,16.1710618 C62.6776719,15.7063788 62.3258775,15.0908331 62.1134238,14.3247428 C61.9006422,13.5583342 61.8947407,12.6171921 62.0953914,11.5029079 L62.388171,9.87715415 C62.5553799,8.9487431 62.8425858,8.10531174 63.2504444,7.34654179 C63.658303,6.58809011 64.1691099,5.94485435 64.7822092,5.41938069 C65.3946529,4.89231566 66.102504,4.48651378 66.9034675,4.19942884 C67.704431,3.91298045 68.5837532,3.76975626 69.5401226,3.76975626 C70.5132129,3.76975626 71.3427003,3.92475666 72.0285847,4.23475747 C72.7144692,4.54412173 73.2557671,4.97029328 73.6524784,5.51168073 C74.0488619,6.05370473 74.3042653,6.69598567 74.4173772,7.43947837 C74.530817,8.18297108 74.5081946,8.99521139 74.3495101,9.87715415 L74.1065654,11.2244164 Z M70.6614059,9.36663947 C70.8181233,8.49997396 70.7427154,7.85355543 70.4364936,7.42674734 C70.1309275,7.00216717 69.642743,6.78892226 68.9729237,6.78892226 C68.3031045,6.78892226 67.7300041,7.00598648 67.2529669,7.43947837 C66.7762576,7.87265199 66.4608556,8.51525121 66.3080726,9.36663947 L66.2910238,9.45957606 L70.6450129,9.45957606 L70.6614059,9.36663947 Z M83.1207653,6.76451049 C83.0401116,6.85872018 82.9440485,6.90455193 82.832248,6.90455193 L82.6414331,6.90455193 C82.0509561,6.90455193 81.4863801,6.98221127 80.9486887,7.13689339 C80.4100137,7.29157552 79.8969118,7.48476905 79.4087274,7.71615569 L77.776965,16.7758816 C77.7540148,16.8990544 77.6864755,17.0120424 77.5730357,17.1119811 C77.4592681,17.2125563 77.3382875,17.2628439 77.2114055,17.2628439 L74.316724,17.2628439 C74.1888584,17.2628439 74.0819758,17.2125563 73.9967321,17.1119811 C73.9101769,17.0107693 73.879358,16.8984179 73.9013246,16.7749268 L76.1271704,4.42072613 C76.1494649,4.2965985 76.2166763,4.18838466 76.3294604,4.09544807 C76.4415887,4.00187493 76.5615857,3.95604319 76.6894514,3.95604319 L79.5356094,3.95604319 C79.6634751,3.95604319 79.7667512,4.00314804 79.8457656,4.09672118 C79.9251079,4.19029432 79.9533039,4.29914471 79.9303536,4.42454544 L79.8457656,4.89241114 C80.3565724,4.53403238 80.9132798,4.25745055 81.5145762,4.06234737 C82.1155447,3.86692592 82.7030709,3.76953347 83.2778106,3.76953347 C83.4046926,3.76953347 83.5082966,3.81663831 83.5869832,3.91021145 C83.6663254,4.00378459 83.6938657,4.11327153 83.6715712,4.23803572 L83.2709255,6.46055693 C83.2515817,6.56940731 83.2010912,6.67093735 83.1207653,6.76451049 Z M35.401668,17.1617594 C35.2020009,17.2082277 34.9531547,17.2476939 34.6305398,17.2912978 C34.2377628,17.343495 33.790233,17.3902816 33.3427033,17.4227457 C32.9748437,17.4497992 32.4279721,17.4638033 32.1092916,17.4638033 C31.3430813,17.4638033 30.6171979,17.4020578 29.930002,17.2779302 C29.2428062,17.1547574 28.6654436,16.914459 28.1956194,16.5586264 C27.7267787,16.2015208 27.3930165,15.6960985 27.1946609,15.0369489 C26.9959773,14.3793908 26.9936823,13.5238649 27.1864644,12.4713262 L29.3850977,0.464682939 C29.4077201,0.341191857 29.4752594,0.232978022 29.5883713,0.140041434 C29.7008275,0.0471048459 29.8204966,0 29.9483622,0 L33.0820541,0 C33.209264,0 33.3131958,0.0471048459 33.3912266,0.140041434 C33.4705689,0.232978022 33.4984371,0.341191857 33.4754868,0.464682939 L31.2768535,12.4713262 C31.1660366,13.0750958 31.2063635,13.4891728 31.3965226,13.7135574 C31.5863539,13.937942 31.9604429,14.0509299 32.5191174,14.0509299 L35.9721455,14.0509299 C36.0990275,14.0509299 36.2023036,14.0964434 36.2816459,14.18938 C36.3596767,14.2823166 36.3882006,14.391167 36.3649225,14.5146581 L35.9698505,16.6741606 C35.9213271,16.9376931 35.7328072,17.1003322 35.401668,17.1617594 Z M13.3040587,1.93922375 C13.5194631,1.99746826 13.5794616,2.08499416 13.5427412,2.28869079 L13.1257025,4.56468236 C13.0716055,4.85813282 12.9355434,4.88295835 12.8004648,4.88295835 L12.7257126,4.88295835 C12.5240783,4.86513489 12.2355609,4.83235246 11.8677013,4.78652072 C11.489678,4.74005243 11.0700164,4.69708517 10.6208474,4.65921033 C10.1693833,4.62133549 9.70546049,4.58823478 9.24350488,4.5602265 C8.77269702,4.53189993 8.34582249,4.51789579 7.97501212,4.51789579 C7.37076499,4.51789579 6.93536609,4.58059616 6.64520944,4.71013449 C6.41439556,4.81325591 6.119321,5.04209634 6.0268643,5.54847343 C5.97506232,5.83205734 6.04391305,6.08763295 6.22653142,6.287192 C6.37210154,6.44569344 6.57865373,6.61119695 6.85897456,6.79420564 L10.0864345,8.79138745 C10.5995364,9.11507413 11.0096901,9.44448977 11.3041089,9.77008611 C11.5962327,10.0940911 11.8162272,10.4285991 11.9595023,10.7653351 C12.1008102,11.0992066 12.1768739,11.441035 12.1844147,11.7815903 C12.1926112,12.1393325 12.1631037,12.5005758 12.0985152,12.8538621 C11.9847475,13.4754551 11.755573,14.070313 11.4172208,14.6212487 C11.0795244,15.1699565 10.6270767,15.6495984 10.0720087,16.0480799 C9.511367,16.4503808 8.83105621,16.7724761 8.04910862,17.0064089 C7.26322671,17.2409783 6.34390552,17.3600135 5.31802963,17.3600135 C4.92131828,17.3600135 4.49837807,17.3460094 4.05806126,17.3186377 C3.61708872,17.2909477 3.16365748,17.2486169 2.71120982,17.1935552 C2.25384425,17.1378569 1.80893738,17.0719738 1.3899315,16.9987703 C0.969286324,16.9252485 0.585361534,16.8424968 0.247337232,16.7508333 C0.0325885233,16.6935436 -0.0267542495,16.6053812 0.0102940009,16.4023211 L0.427332714,14.1260112 C0.445037187,14.0318016 0.486675487,13.9579615 0.558476963,13.8936698 C0.624376948,13.8347887 0.70404708,13.807417 0.810273922,13.807417 L0.905681363,13.807417 C1.2850161,13.8640701 1.70697273,13.9153125 2.15810894,13.960826 C2.62563819,14.0076126 3.09218386,14.0505798 3.5439758,14.0871816 C4.00002993,14.1253747 4.43116665,14.1540195 4.82656656,14.1727978 C5.21868786,14.1912578 5.53867983,14.2008061 5.7753952,14.2008061 C6.53537613,14.2008061 7.05241233,14.0973664 7.35666699,13.8844398 C7.66846244,13.666739 7.8678017,13.3312761 7.94845541,12.8891908 C7.99829023,12.6167465 7.94320964,12.3586247 7.78190222,12.1231005 C7.63665996,11.9124018 7.37273216,11.6902451 6.9743815,11.4438995 L3.5964335,9.33627594 C2.91710629,8.91583336 2.41941386,8.37221798 2.11843781,7.72070704 C1.81778962,7.0704692 1.74533242,6.3043789 1.90237766,5.44280581 C2.14991243,4.09713494 2.80071577,3.06146488 3.83839464,2.36635013 C4.89148296,1.66009571 6.40685476,1.30267178 8.3415603,1.30267178 C9.45923717,1.30267178 10.4024922,1.36282594 11.1444408,1.48154289 C11.8903237,1.60185121 12.6168628,1.75589679 13.3040587,1.93922375 Z M92.9312732,7.08138606 C92.9312732,8.95666817 91.3696731,10.4767543 89.4402133,10.485666 L89.4402133,10.4859843 L84.995079,10.4859843 C84.995079,10.4859843 84.8649183,10.4945777 84.8190178,10.3943208 C84.7632815,10.2714663 84.8816392,10.1734373 84.8816392,10.1734373 L86.4189776,8.83795123 C86.1002971,8.32520862 85.9163673,7.72430355 85.9163673,7.08138606 C85.9163673,5.20101154 87.4868197,3.67615129 89.4238203,3.67615129 C91.3608208,3.67615129 92.9312732,5.20101154 92.9312732,7.08138606 Z" fill="#E00034"/>
</svg>
