<svg xmlns="http://www.w3.org/2000/svg" width="1474" height="248" viewBox="0 0 1474 248">
    <g fill="none" fill-rule="nonzero">
        <path fill="#FFF" d="M1462.17 105.3a25.54 25.54 0 0 0-13.22-3.68h-39.26a25.38 25.38 0 0 0-11.69 2.78c-1-.39-1.92-.75-2.93-1.06a43 43 0 0 0-12.86-1.72h-6.13a25.3 25.3 0 0 0-14.77 4.71c-4.62-2.7-10.87-4.71-19.25-4.71H1336a25.36 25.36 0 0 0-8.2 1.35 25.8 25.8 0 0 0-8.19-1.35h-39.26a25.44 25.44 0 0 0-12.4 3.17 33 33 0 0 0-3.14-1.23 41.26 41.26 0 0 0-13.23-1.94h-6.14a25.89 25.89 0 0 0-14.39 4.24 35.18 35.18 0 0 0-4.68-2 36.91 36.91 0 0 0-9.5-2l-5.91-.62a34.59 34.59 0 0 0-15 1.76l-.64.23c-3-13.17-8.68-24.44-17-33.64-13.62-15.11-34.21-22.66-61.21-22.45-17 .13-31.88 3.24-44.15 9.23a87.93 87.93 0 0 0-20.78 14 50 50 0 0 0-10.39-10.6 55.45 55.45 0 0 0-21.48-9.77 87.58 87.58 0 0 0-19.49-2c-13.4.11-25.14 3.22-34.88 9.26l-.25.15-.57-.34a58.84 58.84 0 0 0-18.74-7 87.44 87.44 0 0 0-17.07-1.52 69.26 69.26 0 0 0-31.89 7.51l-1.07.58a52.15 52.15 0 0 0-5.39-2.27 58.08 58.08 0 0 0-20.31-3.06l-8.94.08c-8.92.06-16.19 2.78-21.67 8.06a55.91 55.91 0 0 0-18.91-7.89 87.2 87.2 0 0 0-19.5-2c-13.4.11-25.14 3.22-34.88 9.26l-.25.15-.58-.34a58.63 58.63 0 0 0-18.73-7 87.37 87.37 0 0 0-17.07-1.51 69.29 69.29 0 0 0-31.89 7.51l-1.06.58a54.66 54.66 0 0 0-5.4-2.28 58.29 58.29 0 0 0-20.31-3h-.93a45.23 45.23 0 0 0 .32-5.84A40 40 0 0 0 657.41 17c-8-7-18.73-10.56-31.93-10.46-13.53.11-25 3.89-34.12 11.23-10.62 8.57-16.41 21-16.3 35.15a44.57 44.57 0 0 0 .7 7.57 64.26 64.26 0 0 0-15.55-7.77 83.89 83.89 0 0 0-28-4.16c-2.85 0-6.05.15-9.51.38-3 .19-6.18.42-9.6.68-3 .23-6.21.43-9.64.62-3.07.18-6.11.27-9 .3a31.34 31.34 0 0 0-15.25 4.09 33 33 0 0 0-17-4.56l-57.84.47a32.26 32.26 0 0 0-24.06 10.82 62.94 62.94 0 0 0-15.43-7.57 85.24 85.24 0 0 0-27.72-4c-2.92 0-6.27.15-9.93.37-3.3.2-6.71.43-10.26.69-3.23.24-6.45.45-9.69.64-2.89.16-5.54.25-7.9.27a32.55 32.55 0 0 0-18.88 6.29l-.85.67a42.77 42.77 0 0 0-12.29-5.89 58.73 58.73 0 0 0-17.67-2.22l-9 .08a32.28 32.28 0 0 0-21.44 8.07c-7.59-5.19-17.2-7.76-28.68-7.67l-9 .07c-.89 0-1.77.06-2.65.14a62.46 62.46 0 0 0-19.69-33C145.96 6.54 127.36.66 103.96.85a128.61 128.61 0 0 0-32.11 4.4A93.36 93.36 0 0 0 39.62 20.8a86.05 86.05 0 0 0-24.21 28.48c-6.41 12-9.6 26.18-9.47 42.16.12 14.54 2.93 27.17 8.34 37.5a85 85 0 0 0 4.32 7.33c-8.39 5.74-13.45 14.92-15.52 23.2C1.19 167 .37 177.11.47 191.26c.1 10.06 4.25 19.54 12.37 28.19a75 75 0 0 0 20.61 15 118.29 118.29 0 0 0 25.35 9.28 125.19 125.19 0 0 0 31.2 3.55c13.33-.11 25.46-2.19 36.07-6.18a79.19 79.19 0 0 0 28.78-18.32 75.61 75.61 0 0 0 8.34-10.09 62.87 62.87 0 0 0 21.65 14.15 77.83 77.83 0 0 0 29.52 5.05 83.18 83.18 0 0 0 28.19-4.73 72.22 72.22 0 0 0 22.18-12.82c1.07-.93 2.1-1.88 3.11-2.86a42.2 42.2 0 0 0 6.74 8.39c8.42 8.09 19.91 12.14 34.16 12l8.84-.06a31.76 31.76 0 0 0 24.73-11.47 34.46 34.46 0 0 0 7.54-18.14l.29-3.9a59.45 59.45 0 0 0 16-5.83 44.17 44.17 0 0 0 13.64 27.85c8.41 7.79 19.71 11.68 33.6 11.57l37.79-.3c11.51-.09 19.73-3.41 25.52-7.56 7.42 4.46 16.48 6.68 27.06 6.59l8.22-.06a32.64 32.64 0 0 0 17.53-5.07 42.63 42.63 0 0 0 23.08 6.42 53.22 53.22 0 0 0 19.42-3.67 56.82 56.82 0 0 0 12.55-6.88 44.18 44.18 0 0 0 14.6 7.88 62.19 62.19 0 0 0 19.85 2.69l8.26-.07c8-.06 14.73-2.3 20.1-6.7a46.39 46.39 0 0 0 8.34 3.63 62.25 62.25 0 0 0 19.92 2.69l8.25-.07c9.18-.07 16.71-3 22.4-8.79a28 28 0 0 0 3.39-4.16 42.62 42.62 0 0 0 18 10.12 67.28 67.28 0 0 0 19.49 2.33l7.33-.06a40.63 40.63 0 0 0 8.3-.8A29 29 0 0 0 779.55 220c.6-.73 1.16-1.49 1.68-2.28A42.53 42.53 0 0 0 799.4 228a67.72 67.72 0 0 0 19.49 2.33l7.34-.06a41.76 41.76 0 0 0 8.31-.8 29.12 29.12 0 0 0 12.32-5.73 47.59 47.59 0 0 0 8 3.45 62 62 0 0 0 19.92 2.69l8.25-.06c9.18-.08 16.7-3 22.4-8.8a28.78 28.78 0 0 0 3.39-4.16 42.58 42.58 0 0 0 18 10.12 67.37 67.37 0 0 0 19.49 2.33l7.34-.05a42.17 42.17 0 0 0 8.3-.8 29 29 0 0 0 16.77-10.06c.59-.73 1.15-1.5 1.68-2.29a42.43 42.43 0 0 0 18.17 10.3 67.37 67.37 0 0 0 19.49 2.33l7.33-.06a41.24 41.24 0 0 0 8.33-.8 28.94 28.94 0 0 0 16.74-10.05c.59-.73 1.14-1.5 1.66-2.29a72.64 72.64 0 0 0 15.13 8.52c10.38 4.35 22.37 6.42 36.64 6.3 12.48-.1 23.79-1.9 33.6-5.36a81.94 81.94 0 0 0 36.77-25.08 31.49 31.49 0 0 0 9.35 18.43c6.22 5.95 14.66 9 25.09 9h6.13a25.23 25.23 0 0 0 14.17-4.25 32.45 32.45 0 0 0 11.18 3.75l4.93.53a49.7 49.7 0 0 0 19.29-1.68l2.7-.78c.57-.27 1.13-.56 1.69-.87a40 40 0 0 0 16.65 3.29h25.65c8.63 0 14.8-2.44 19.17-5.51a46.58 46.58 0 0 0 5.94 2.88 56.22 56.22 0 0 0 21.06 3.75 60.26 60.26 0 0 0 20.11-3.18 53.79 53.79 0 0 0 12.78-6.53c6.2 5.69 14.49 8.57 24.64 8.57h6.21c12.029.187 22.337-8.561 24.11-20.46l1.08-13.68a27.59 27.59 0 0 0 12.82-9.08 32.84 32.84 0 0 0 6.73-18.18l.45-6.57v-1.58a25.78 25.78 0 0 0-.3-3.95c.32-.36.62-.73.9-1.08a33 33 0 0 0 6.71-18.16l.44-6.58.06-1.57a24.442 24.442 0 0 0-11.83-21.13z"/>
        <g fill="#F90362">
            <path d="M1103.7 205.07c-10.54.08-19.3-1.327-26.28-4.22a41.61 41.61 0 0 1-16.72-12 45.72 45.72 0 0 1-8.85-18 92.7 92.7 0 0 1-2.7-22.1 107.52 107.52 0 0 1 3.11-26.68 61.63 61.63 0 0 1 11.16-23.33 57.79 57.79 0 0 1 21.07-16.61c8.753-4.227 19.7-6.397 32.84-6.51 19.26-.14 33.09 4.403 41.49 13.63 8.4 9.227 12.667 22.227 12.8 39 .011 5.197-.29 10.39-.9 15.55a83.28 83.28 0 0 1-3.77 16.92 79.19 79.19 0 0 1-7.66 16.39 55.74 55.74 0 0 1-12.37 14.16 58.46 58.46 0 0 1-18.15 9.9c-7.08 2.48-15.437 3.757-25.07 3.83m10-99.2c-5.813.04-10.427 1.55-13.84 4.53a28.41 28.41 0 0 0-7.7 10.72 47.27 47.27 0 0 0-3.33 13.18c-.464 3.88-.701 7.783-.71 11.69.08 10 1.747 17.333 5 22 3.253 4.667 7.857 6.973 13.81 6.92a18.19 18.19 0 0 0 13.14-5.09 34.67 34.67 0 0 0 7.93-12.05 59.77 59.77 0 0 0 3.78-14.78 99.31 99.31 0 0 0 .93-12.93c-.06-7.56-1.523-13.483-4.39-17.77-2.867-4.287-7.733-6.403-14.6-6.35M890.56 163.71a703.601 703.601 0 0 1-1.45 19.88c-.553 6.293-.967 11.783-1.24 16.47-.14 1.81-.51 3-1.12 3.63-.61.63-1.91.93-3.89.94l-8.25.07a37.67 37.67 0 0 1-11.61-1.38 17.2 17.2 0 0 1-7.13-4.15 14.68 14.68 0 0 1-3.73-6.67 36.81 36.81 0 0 1-1.1-9.18c0-2.27.07-5.48.26-9.65s.57-9.92 1.12-17.26c.55-7.34 1.21-16.66 1.95-27.94.74-11.28 1.68-25.24 2.76-41.91.13-3.32.49-5.29 1.1-5.9.46-.46 1.68-.7 3.67-.71l8.94-.07a33.11 33.11 0 0 1 11.24 1.5 21.41 21.41 0 0 1 7.14 4 13.88 13.88 0 0 1 3.94 5.88 27.29 27.29 0 0 1 1.43 7c4.367-8.2 9.367-13.763 15-16.69a43.56 43.56 0 0 1 19.91-4.47 62 62 0 0 1 11.93 1 32.46 32.46 0 0 1 10.34 3.78 25.88 25.88 0 0 1 7.85 7.09 28.7 28.7 0 0 1 4.68 11.2c4.667-8.813 9.813-14.947 15.44-18.4 5.627-3.453 12.717-5.21 21.27-5.27a62.32 62.32 0 0 1 13.66 1.36 29.47 29.47 0 0 1 11.38 5 25.32 25.32 0 0 1 7.76 9.81c1.94 4.14 2.94 9.317 3 15.53 0 4.68-.15 10.44-.55 17.25-.4 6.81-.88 14.2-1.42 22.15-.54 7.95-1.18 16.12-1.87 24.53-.69 8.41-1.25 16.46-1.64 24.19-.15 1.66-.29 2.95-.43 3.86a4.4 4.4 0 0 1-.78 2.05 3 3 0 0 1-1.72.92 17.13 17.13 0 0 1-3.2.25l-7.34.06a43 43 0 0 1-11.93-1.27 16.57 16.57 0 0 1-7.14-3.8 13.76 13.76 0 0 1-3.6-6.21 32.29 32.29 0 0 1-1.1-8.51c0-2 .08-4.77.28-8.4.2-3.63.47-7.57.82-11.81s.69-8.64 1-13.17c.31-4.53.69-7.47 1-11.33.31-3.86.63-7.23.84-10.1.21-2.87.3-4.78.3-5.69a22.07 22.07 0 0 0-2.49-10.42c-1.633-3.013-4.74-4.5-9.32-4.46a15 15 0 0 0-10.29 3.93 30.1 30.1 0 0 0-7.24 10.73 77 77 0 0 0-4.69 16.16 135.63 135.63 0 0 0-2.36 18.94c-.27 4.69-.6 10.07-1 16.12-.4 6.05-.88 13.63-1.42 22.71-.14 1.67-.28 2.95-.43 3.86a4.23 4.23 0 0 1-.78 2.06 3 3 0 0 1-1.71.92 17.33 17.33 0 0 1-3.21.25h-7.33a43 43 0 0 1-11.93-1.26 16.67 16.67 0 0 1-7.14-3.8 13.72 13.72 0 0 1-3.61-6.22 32.25 32.25 0 0 1-1.09-8.51c0-3.02.23-7.447.69-13.28.46-5.833.947-11.89 1.46-18.17.48-6.28 1-11 1.46-16.67.46-5.67.72-9.8.7-12.37a22 22 0 0 0-2.49-10.43c-1.62-3.007-4.727-4.493-9.32-4.46a14 14 0 0 0-10.5 4.62 35.15 35.15 0 0 0-7.13 12.2 81.48 81.48 0 0 0-4.44 16.58 205.54 205.54 0 0 0-2.23 21.35M691.37 165.3c-.4 6.96-.88 13.587-1.44 19.88-.56 6.293-.977 11.78-1.25 16.46-.14 1.82-.51 3-1.12 3.64-.61.64-1.9.92-3.89.94l-8.25.07a38 38 0 0 1-11.59-1.39 17.09 17.09 0 0 1-7.13-4.15 14.59 14.59 0 0 1-3.73-6.66 37.265 37.265 0 0 1-1.1-9.18c0-2.28.07-5.49.27-9.65s.56-9.92 1.11-17.27 1.21-16.65 2-27.93c.79-11.28 1.66-25.25 2.75-41.91.13-3.32.5-5.3 1.11-5.91.45-.45 1.67-.69 3.66-.7l8.94-.08a33.61 33.61 0 0 1 11.24 1.5 21.42 21.42 0 0 1 7.14 4 13.91 13.91 0 0 1 4 5.87 28 28 0 0 1 1.43 7c4.36-8.207 9.36-13.77 15-16.69a43.43 43.43 0 0 1 19.91-4.47c4-.058 7.996.277 11.93 1a32.46 32.46 0 0 1 10.34 3.78 25.76 25.76 0 0 1 7.85 7.09 28.57 28.57 0 0 1 4.68 11.19c4.667-8.8 9.813-14.93 15.44-18.39 5.627-3.46 12.717-5.217 21.27-5.27a61.5 61.5 0 0 1 13.65 1.37 29.35 29.35 0 0 1 11.39 5 25.26 25.26 0 0 1 7.76 9.82c1.94 4.14 2.94 9.313 3 15.52.04 4.667-.143 10.42-.55 17.26-.407 6.84-.883 14.22-1.43 22.14-.54 7.953-1.16 16.13-1.86 24.53-.7 8.4-1.283 16.497-1.75 24.29-.14 1.67-.28 3-.43 3.87a4.33 4.33 0 0 1-.78 2.05 3 3 0 0 1-1.71.92 19.32 19.32 0 0 1-3.22.25l-7.33.06a43 43 0 0 1-11.93-1.27 16.59 16.59 0 0 1-7.13-3.81 13.64 13.64 0 0 1-3.61-6.21 32.21 32.21 0 0 1-1.1-8.5c0-2 .093-4.803.28-8.41.187-3.607.46-7.54.82-11.8.34-4.24.673-8.633 1-13.18.34-4.54.69-7.46 1.05-11.32.36-3.86.62-7.24.83-10.11.21-2.87.31-4.77.3-5.68a21.89 21.89 0 0 0-2.49-10.42c-1.627-3.02-4.733-4.51-9.32-4.47a15.08 15.08 0 0 0-10.28 3.94 29.9 29.9 0 0 0-7.25 10.73 77.11 77.11 0 0 0-4.69 16.15 135.78 135.78 0 0 0-2.36 18.95c-.267 4.667-.6 10.04-1 16.12-.4 6.08-.877 13.65-1.43 22.71-.13 1.67-.28 2.95-.42 3.86a4.25 4.25 0 0 1-.79 2.05 2.9 2.9 0 0 1-1.71.92 17.1 17.1 0 0 1-3.21.26l-7.33.05a43 43 0 0 1-11.91-1.25 16.58 16.58 0 0 1-7.14-3.81 13.58 13.58 0 0 1-3.6-6.21 31.82 31.82 0 0 1-1.1-8.51c0-3.033.233-7.46.7-13.28.48-5.82 1-11.89 1.45-18.17.45-6.28 1-11 1.46-16.66.46-5.66.73-9.81.7-12.39A22.06 22.06 0 0 0 725 115c-1.64-3-4.74-4.5-9.33-4.47a14.08 14.08 0 0 0-10.51 4.63 35.45 35.45 0 0 0-7.12 12.2 81.11 81.11 0 0 0-4.43 16.57 200.1 200.1 0 0 0-2.24 21.36M618.81 205.43a37.6 37.6 0 0 1-11.59-1.4 17 17 0 0 1-7.14-4.18 15 15 0 0 1-3.72-6.73 38.017 38.017 0 0 1-1.11-9.28c0-2.29.07-5.54.27-9.74s.57-10 1.12-17.43c.55-7.43 1.2-16.82 2-28.22.8-11.4 1.66-25.49 2.75-42.31.133-3.333.5-5.333 1.1-6 .46-.46 1.67-.7 3.66-.72l8.94-.07c3.905-.134 7.81.3 11.59 1.29a16.28 16.28 0 0 1 7.14 4.07 14.9 14.9 0 0 1 3.72 6.62c.74 2.84 1.11 5.765 1.1 8.7 0 2.293-.127 5.73-.38 10.31a3106.56 3106.56 0 0 1-1.11 18.7c-.473 7.873-1.12 17.657-1.94 29.35-.82 11.693-1.853 25.8-3.1 42.32-.15 1.84-.52 3.06-1.12 3.68-.6.62-1.91.93-3.89 1l-8.29.04zm-17.5-156.54c-.047-6.113 2.13-10.943 6.53-14.49 4.4-3.547 10.347-5.347 17.84-5.4 6.573-.053 11.36 1.247 14.36 3.9a13.6 13.6 0 0 1 4.55 10.62 18 18 0 0 1-6.19 14.14c-4.167 3.793-10.3 5.717-18.4 5.77-12.38.1-18.61-4.74-18.69-14.52v-.02zM574.16 183.58c-1.33-2-3.25-4.85-5.9-8.73l-11.44-16.14a36.5 36.5 0 0 0 13.93-15.07 54.24 54.24 0 0 0 5.32-24.75 52.68 52.68 0 0 0-2.54-16.37 33.37 33.37 0 0 0-7.92-13 35.24 35.24 0 0 0-13.79-8.26 59.17 59.17 0 0 0-19.37-2.7c-2.37 0-5.06.13-8 .32-2.94.19-6 .41-9.32.65-3.14.24-6.57.46-10.19.65-3.62.19-6.93.3-10.25.33a6 6 0 0 0-5.85 5.08c-.23 1-.59 3.19-1 10.19l-.84 16.34c-.33 6.92-.89 16-1.67 27-.4 5.3-.77 10.513-1.11 15.64v.69c-.32 4.847-.623 9.323-.91 13.43-.29 4.34-.51 8.13-.65 11.25-.14 3.12-.21 5.5-.2 6.89 0 5.92 1.79 10.54 5.16 13.74 3.37 3.2 8.59 4.72 15.94 4.66l8.22-.07a6.1 6.1 0 0 0 4.88-2 7.25 7.25 0 0 0 1.52-4v-.47c0-.06 0-.67.28-3.68.21-2.29.4-5.15.6-8.72.2-3.57.43-7.38.73-11.77.2-3.1.41-6.32.61-9.65 1 .11 2 .21 3.08.29 1.17 4.46 2.39 8.8 3.67 12.93a74.8 74.8 0 0 0 5.66 13.8 37 37 0 0 0 7.81 10.16 17 17 0 0 0 11.73 4.36 27.62 27.62 0 0 0 10-1.82 30.45 30.45 0 0 0 7.49-4.14 21.86 21.86 0 0 0 4.93-5.08 9.85 9.85 0 0 0 2-5.41c0-1.82-.83-3.87-2.64-6.64M540 126.44a13.21 13.21 0 0 1-1.81 4.81 11.3 11.3 0 0 1-3.74 3.66c-2.49 1.57-6.63 1.85-12.21.94.3-4.83.54-9.46.73-13.77.17-3.9.32-7.4.47-10.51l2-.22c1.5-.16 2.87-.25 4-.26 4.26 0 7.26.76 8.67 2.29 1.41 1.53 2.32 4.28 2.35 7.78a31.37 31.37 0 0 1-.48 5.28M451 205.89l-37.79.31c-7.21.06-12.37-1.45-15.79-4.62s-5.26-7.76-5.3-13.5c0-2.36.11-6.22.41-11.81.3-5.59.69-11.89 1.17-18.74.48-6.85 1-14.32 1.47-22.07s1-15.18 1.48-22 .88-12.94 1.17-18c.29-5.06.42-8.56.4-10.37a6.14 6.14 0 0 1 6.44-6.54l57.84-.48a7.06 7.06 0 0 1 3.8 1 5.93 5.93 0 0 1 2.73 5.23v.27l-.58 10A18.76 18.76 0 0 1 465 105c-2.36 3.14-6.54 4.7-12.78 4.75l-19.09.16-1 15.87 19.2-.16a7.14 7.14 0 0 1 3.79 1 6 6 0 0 1 2.74 5.23v.27l-.59 10a18.7 18.7 0 0 1-3.44 10.39c-2.36 3.14-6.54 4.69-12.78 4.74l-10.71.09-1.1 17.23 32-.27a6.84 6.84 0 0 1 4 1.28 6 6 0 0 1 2.51 5v.27l-.59 9.95a18.64 18.64 0 0 1-3.44 10.39c-2.36 3.14-6.53 4.69-12.78 4.74M378.48 102.28a32.57 32.57 0 0 0-21.76-21.77 60.28 60.28 0 0 0-19.32-2.63c-2.47 0-5.36.13-8.59.32-3.23.19-6.49.42-9.9.67-3.41.25-6.75.47-10.12.67-3.37.2-6.41.29-9.18.31a6.6 6.6 0 0 0-3.85 1.33 6 6 0 0 0-2.42 5.14v4.51c0 1.39-.09 3.06-.13 4.78-.04 1.72-.14 3.68-.27 5.85-.13 2.17-.33 5.14-.52 8.54-.19 3.4-.46 7.5-.8 12.11-.34 4.61-.77 10.37-1.26 16.93-.4 5.333-.773 10.57-1.12 15.71l-.95 14.19c-.3 4.37-.52 8.19-.66 11.35s-.21 5.61-.2 7.13c.05 6 1.79 10.64 5.17 13.87 3.38 3.23 8.58 4.77 15.93 4.71l8.84-.06a6.05 6.05 0 0 0 4.88-2 7.25 7.25 0 0 0 1.53-4l1.78-28.31a38.08 38.08 0 0 0 7.21.55c8.43-.07 15.84-1.66 22-4.73A42.88 42.88 0 0 0 370 155.06a50.46 50.46 0 0 0 8.51-17.51 74.14 74.14 0 0 0 2.54-20 44.94 44.94 0 0 0-2.54-15.26m-40.23 39.11a11.12 11.12 0 0 1-6.92 2 36 36 0 0 1-4-.2c-.38 0-.76-.08-1.15-.14.39-6.13.71-12.06.94-17.69.213-5.16.397-9.717.55-13.67l2.26-.25c1.61-.17 3.1-.26 4.4-.27 4.33 0 7.33.78 8.69 2.33 1.51 1.75 2.3 4.56 2.32 8.35a47.56 47.56 0 0 1-.55 6.91 24.43 24.43 0 0 1-2.22 7.2 15.31 15.31 0 0 1-4.35 5.43M213.57 206.57c-8 .05-15.08-1-20.91-3.21A38.47 38.47 0 0 1 178 194a36.43 36.43 0 0 1-8.3-14 54.38 54.38 0 0 1-2.57-16.45c0-2.53.07-5.94.27-10.13s.49-8.83.86-13.69c.37-4.86.77-10 1.19-15.28.42-5.28.82-10.3 1.19-15.08.37-4.78.71-9.1 1-13 .29-3.9.52-6.65.63-8.63.14-3 .62-4.87 1.6-6.18a6.57 6.57 0 0 1 5.38-2.57l9.59-.08c8.47-.07 14.21 1.78 17.53 5.64 3.06 3.57 4.64 8.71 4.69 15.26 0 .21 0 .64-.23 4.67-.147 2.62-.353 5.827-.62 9.62-.27 3.77-.52 7.87-.78 12.3-.26 4.43-.51 8.69-.77 12.7s-.46 7.47-.61 10.45c-.18 3.63-.22 5.15-.21 5.79 0 1.8.11 3.9.3 6.23a23.91 23.91 0 0 0 1.25 6 8.91 8.91 0 0 0 2.59 3.91c.9.79 2.4 1.18 4.46 1.16a8.72 8.72 0 0 0 6.66-2.64 22.15 22.15 0 0 0 4.84-7.86 48 48 0 0 0 2.51-10.06c.47-3.55.83-6.53 1-8.85.42-5.61.87-11.45 1.34-17.47.47-6.02.9-11.6 1.27-16.81.37-5.21.64-9.68.84-13.61.2-3.93.29-6.42.29-7.78 0-3.07.25-4.85 1-6.13.62-1.1 2.2-3 5.84-3l9.59-.08a38.54 38.54 0 0 1 10.54 1.09A16.14 16.14 0 0 1 269 83.1a11.06 11.06 0 0 1 3.36 5.83c.356 1.724.54 3.48.55 5.24 0 1.51-.05 4.25-.2 8.33-.15 4.08-.31 8.56-.5 13.67-.19 5.11-.46 10.54-.76 15.91-.3 5.37-.68 10.33-1.12 14.51-.32 3.4-.84 7.21-1.51 11.33a82.09 82.09 0 0 1-3.28 13 63.38 63.38 0 0 1-6.12 12.91 45.58 45.58 0 0 1-10.21 11.49 49.82 49.82 0 0 1-15.06 8.14 64.91 64.91 0 0 1-20.62 3.15M104.11 28.92c16.32-.127 28.46 3.337 36.42 10.39 7.96 7.053 11.987 16.313 12.08 27.78.08 9.727-2.553 17.173-7.9 22.34-5.347 5.167-13.053 7.79-23.12 7.87-3.13 0-5.13-.26-6-.87-.87-.61-1.32-1.85-1.34-3.77 0-1.73-.15-4-.44-6.76a28.71 28.71 0 0 0-2-8.07 16.19 16.19 0 0 0-5-6.6c-2.267-1.8-5.4-2.687-9.4-2.66a23.53 23.53 0 0 0-14.81 5.2 15.91 15.91 0 0 0-6.4 13.21 14.17 14.17 0 0 0 5.43 11.42 62.46 62.46 0 0 0 13.48 8.1c5.4 2.467 11.28 4.983 17.64 7.55a72.88 72.88 0 0 1 17.67 10.14A53.26 53.26 0 0 1 143.94 140c3.613 6.313 5.457 14.33 5.53 24.05a60.54 60.54 0 0 1-3.6 21.52 48.68 48.68 0 0 1-11.06 17.54 51 51 0 0 1-18.67 11.75c-7.527 2.84-16.33 4.297-26.41 4.37a96.08 96.08 0 0 1-24.12-2.67 90.2 90.2 0 0 1-19.33-7 47.35 47.35 0 0 1-13-9.27c-3.153-3.373-4.74-6.443-4.76-9.21-.093-11.467.493-19.723 1.76-24.77 1.267-5.047 3.633-7.583 7.1-7.61 2.43 0 5 1 7.71 3.06s5.81 4.39 9.3 7a64.21 64.21 0 0 0 12.17 6.93 41.67 41.67 0 0 0 23.21 2.29 19.78 19.78 0 0 0 6.23-2.26 12.8 12.8 0 0 0 4.39-4.2 11.21 11.21 0 0 0 1.65-6.27 12.62 12.62 0 0 0-5-10.38 56.5 56.5 0 0 0-12.57-7.07 855.976 855.976 0 0 0-16.33-6.64 63.46 63.46 0 0 1-16.36-9.51 48.33 48.33 0 0 1-12.63-15.66c-3.333-6.4-5.05-14.637-5.15-24.71-.093-11.287 1.96-20.857 6.16-28.71A57.86 57.86 0 0 1 56.41 43.3 64.86 64.86 0 0 1 79 32.38a100.4 100.4 0 0 1 25.11-3.46M1424.3 171.85l-2.12 30.55c-.08.6-.13 1-.16 1.29-.03.29-.4.39-1.07.39h-6.13c-4.167 0-7.14-.82-8.92-2.46-1.79-1.63-2.68-4-2.68-7 0-1.49.11-4 .34-7.64.23-3.64.52-7.71.89-12.33s.74-9.48 1.12-14.61c.38-5.13.74-10 1.11-14.5.37-4.5.66-8.51.89-11.93.23-3.42.33-5.76.33-7 0-1.11.6-1.67 1.79-1.67H1449a2.41 2.41 0 0 1 1.23.33c.393.285.603.758.55 1.24l-.44 6.57a9.58 9.58 0 0 1-1.84 5.41c-1.09 1.38-3.29 2.06-6.64 2.06h-15.39l-1.12 15.73h15.84c.43-.004.851.11 1.22.33.402.278.617.755.56 1.24l-.44 6.57a9.66 9.66 0 0 1-1.84 5.41c-1.08 1.38-3.293 2.07-6.64 2.07l-9.75-.05zM1391.29 167.72c-.22 2.23-.56 4.7-1 7.41a54 54 0 0 1-2.07 8.26 40.63 40.63 0 0 1-3.73 8.08 27.47 27.47 0 0 1-6 7 28.63 28.63 0 0 1-8.86 4.9 37.13 37.13 0 0 1-12.33 1.85 33.1 33.1 0 0 1-12.38-2.07 21.43 21.43 0 0 1-13.08-14.15 35.48 35.48 0 0 1-1.45-10.26c0-1.63.07-3.85.23-6.64.16-2.79.34-5.82.61-9.08.27-3.26.54-6.68.84-10.21.3-3.53.57-6.9.83-10.09.26-3.19.5-6.08.73-8.65.23-2.57.37-4.52.45-5.85a5.74 5.74 0 0 1 .55-2.74 1.58 1.58 0 0 1 1.34-.61h6.13c4.54 0 7.59.967 9.15 2.9 1.56 1.933 2.34 4.797 2.34 8.59 0 .22 0 1.21-.17 3s-.26 3.88-.44 6.4c-.18 2.52-.38 5.29-.56 8.26-.18 2.97-.38 5.79-.56 8.48-.18 2.69-.33 5-.45 7s-.16 3.35-.16 4c0 1.26 0 2.71.16 4.34a19.39 19.39 0 0 0 .9 4.69 8.64 8.64 0 0 0 2.34 3.74 6.56 6.56 0 0 0 4.63 1.5 8.1 8.1 0 0 0 6.19-2.56 17.71 17.71 0 0 0 3.68-6.14 35.38 35.38 0 0 0 1.78-7.25c.34-2.45.58-4.45.73-6 .29-3.79.61-7.7.94-11.7.33-4 .64-7.78.9-11.28.26-3.5.46-6.54.61-9.14.15-2.6.23-4.39.23-5.35a7.48 7.48 0 0 1 .33-2.85 1.51 1.51 0 0 1 1.45-.61h6.14a20.93 20.93 0 0 1 6 .67 7.8 7.8 0 0 1 3.29 1.79 4.9 4.9 0 0 1 1.4 2.56c.182.99.272 1.994.27 3 0 1 0 2.79-.16 5.47-.16 2.68-.25 5.73-.4 9.14-.15 3.41-.33 7-.55 10.59-.22 3.59-.49 6.85-.78 9.6M1285.45 204.08c-4.17 0-7.14-.82-8.93-2.46-1.79-1.64-2.67-4-2.67-7 0-1.487.11-4.033.33-7.64.22-3.607.517-7.717.89-12.33.373-4.607.747-9.477 1.12-14.61.373-5.133.743-9.967 1.11-14.5.38-4.53.67-8.51.9-11.93.23-3.42.33-5.76.33-7 0-1.11.6-1.67 1.79-1.67h39.26c.43-.005.854.113 1.22.34.397.273.612.741.56 1.22l-.45 6.58a9.53 9.53 0 0 1-1.84 5.41c-1.08 1.373-3.29 2.06-6.63 2.06H1297l-1.11 15.73h15.84c.43-.003.851.11 1.22.33.397.278.611.749.56 1.23l-.45 6.59a9.6 9.6 0 0 1-1.83 5.4c-1.08 1.38-3.3 2.06-6.64 2.06h-9.7l-1.23 16.62h24.53a2.14 2.14 0 0 1 1.24.39c.354.255.566.663.57 1.1l-.44 6.57a9.66 9.66 0 0 1-1.85 5.41c-1.08 1.38-3.29 2.07-6.63 2.07l-25.63.03zM1247.08 204.08c-3.047 0-5.313-.447-6.8-1.34a8.19 8.19 0 0 1-3.23-3.34 1481.97 1481.97 0 0 1-10.88-22.87 6244.178 6244.178 0 0 0-10.32-22.09c.073 8.04.187 16.04.34 24 .153 7.96.3 15.96.44 24 0 1.12-.59 1.68-1.78 1.68h-6.13c-4.247 0-7.247-.837-9-2.51-1.75-1.68-2.63-4.14-2.63-7.42 0-.89.06-2.4.17-4.52.11-2.12.28-4.62.51-7.53.23-2.91.46-6.08.72-9.53.26-3.45.53-7 .84-10.54.44-5.647.81-10.33 1.11-14.05.3-3.72.54-6.863.72-9.43.19-2.56.32-4.76.4-6.57.08-1.81.15-3.63.22-5.42 0-1.11.6-1.67 1.79-1.67h8.91a18.44 18.44 0 0 1 6 .83 11 11 0 0 1 3.85 2.29 11.84 11.84 0 0 1 2.4 3.29c.59 1.23 1.15 2.51 1.67 3.85 1.78 4.607 3.36 8.583 4.74 11.93a2535.92 2535.92 0 0 1 3.62 8.82c1 2.53 2 4.72 2.74 6.58.74 1.86 1.5 3.57 2.17 5.13.67 1.56 1.34 3.06 2 4.51.66 1.45 1.37 3 2.12 4.74 0-4.38 0-8.9-.06-13.55s-.07-9.18-.11-13.61c-.04-4.43-.07-8.67-.11-12.76-.04-4.09-.06-7.78-.06-11.05 0-.66.63-1 1.9-1h6.13a18.87 18.87 0 0 1 5.86.73 7.58 7.58 0 0 1 3.4 2.11 7.24 7.24 0 0 1 1.62 3.4 24.22 24.22 0 0 1 .39 4.58c0 1.86-.113 4.703-.34 8.53-.227 3.827-.487 8.12-.78 12.88-.3 4.76-.633 9.687-1 14.78s-.7 9.78-1 14.06c-.34 4.31-.63 8-.89 11s-.43 4.79-.51 5.3a1.55 1.55 0 0 1-.61 1.34 2.29 2.29 0 0 1-1.39.45l-9.15-.01z"/>
        </g>
    </g>
</svg>
