<svg xmlns="http://www.w3.org/2000/svg" width="2213" height="456" viewBox="0 0 2213 456">
    <g fill="none" fill-rule="evenodd">
        <g fill="#FFF" fill-rule="nonzero">
            <path d="M2038.661 424.503c-26.37.202-48.51-3.678-67.689-11.64a125.171 125.171 0 0 1-49.87-36.773 133.872 133.872 0 0 1-25.744-52.22 223.991 223.991 0 0 1-6.436-52.605 251.993 251.993 0 0 1 7.116-61.652 164.779 164.779 0 0 1 29.22-61.56 155.548 155.548 0 0 1 56.251-45.085c22.655-11.033 50.09-16.788 81.554-17.045 49.87-.386 87.898 13.551 113.035 41.463 23.63 26.238 35.785 61.541 36.117 104.917a292.828 292.828 0 0 1-1.969 34.788 206.692 206.692 0 0 1-9.084 41.37 197.892 197.892 0 0 1-18.683 40.453 153.26 153.26 0 0 1-33.375 38.612 156.639 156.639 0 0 1-48.4 26.92c-18.112 6.619-38.983 9.873-62.043 10.057z"/>
            <path d="M1893.666 421.395l-13.552.11a124.833 124.833 0 0 1-35.987-4.302 78.32 78.32 0 0 1-33.56-19.03 50.179 50.179 0 0 1-3.125 4.229 53.494 53.494 0 0 1-30.949 18.663 77.055 77.055 0 0 1-15.336 1.452l-13.552.11a124.244 124.244 0 0 1-36.005-4.302 78.558 78.558 0 0 1-33.21-18.681 53.324 53.324 0 0 1-6.27 7.685c-10.52 10.665-24.421 16.107-41.375 16.236l-15.226.129a114.865 114.865 0 0 1-36.778-4.965 79.367 79.367 0 0 1-32.952-20.042 75.698 75.698 0 0 1-18.94-33.905 117.49 117.49 0 0 1-3.678-29.144c0-5.167.147-11.915.551-20.649.386-8.274 1.104-19.564 2.152-33.556 1.005-13.558 2.2-30.78 3.586-51.668 1.385-20.888 3.064-46.697 5.038-77.428.331-8.752 1.398-27.82 15.888-42.548 10.206-10.37 23.905-15.684 40.97-15.83l16.55-.13a107.38 107.38 0 0 1 37.531 5.645 96.692 96.692 0 0 1 9.948 4.21l1.986-1.084a127.884 127.884 0 0 1 58.844-13.864c10.572-.1 21.129.837 31.518 2.795a108.389 108.389 0 0 1 34.608 12.87l1.067.626.46-.276c18.002-11.16 39.682-16.916 64.36-17.1a161.577 161.577 0 0 1 36.005 3.678 102.54 102.54 0 0 1 39.683 17.89 95.412 95.412 0 0 1 29.256 36.775c6.51 14.066 9.893 30.54 10.04 49.02 0 9.91-.276 21.494-1.103 35.413a4910.76 4910.76 0 0 1-2.666 41.757 3121.318 3121.318 0 0 1-3.494 46.41 1415.748 1415.748 0 0 0-2.924 43.613l-.11 1.618c-.368 4.358-.754 7.723-1.196 10.591a56.041 56.041 0 0 1-11.768 26.993 53.512 53.512 0 0 1-30.93 18.57 76.412 76.412 0 0 1-15.355 1.416z"/>
            <path d="M1525.763 424.319l-13.552.11a124.19 124.19 0 0 1-35.987-4.302 78.356 78.356 0 0 1-33.578-19.012 53.105 53.105 0 0 1-3.107 4.229 53.549 53.549 0 0 1-30.967 18.57 78.195 78.195 0 0 1-15.336 1.471l-13.534.11a124.87 124.87 0 0 1-36.005-4.302 78.393 78.393 0 0 1-33.21-18.7 52.33 52.33 0 0 1-6.29 7.705c-10.499 10.646-24.4 16.088-41.355 16.217l-15.245.129a115.012 115.012 0 0 1-36.777-4.965 79.588 79.588 0 0 1-32.934-20.023 75.385 75.385 0 0 1-19.014-33.814 117.49 117.49 0 0 1-3.678-29.144c0-5.148.129-11.896.552-20.63.386-8.421 1.103-19.71 2.151-33.556 1.006-13.558 2.195-30.78 3.568-51.668 1.373-20.888 3.058-46.703 5.057-77.447.33-8.752 1.397-27.82 15.87-42.547 10.205-10.37 23.904-15.685 40.97-15.813l16.549-.129a107.399 107.399 0 0 1 37.531 5.627 96.692 96.692 0 0 1 9.949 4.21l1.986-1.066c17.267-9.047 37.071-13.699 58.843-13.883a162.055 162.055 0 0 1 31.519 2.777 107.93 107.93 0 0 1 34.607 12.87l1.067.644.441-.294c18.003-11.142 39.701-16.898 64.453-17.1a162.496 162.496 0 0 1 35.986 3.678 102.393 102.393 0 0 1 39.738 17.89 95.228 95.228 0 0 1 29.238 36.774c6.528 14.067 9.893 30.541 10.04 49.002 0 9.93-.275 21.513-1.084 35.414a3961.546 3961.546 0 0 1-2.667 41.738 3466.478 3466.478 0 0 1-3.494 46.428c-1.232 14.948-2.225 29.621-2.923 43.614l-.11 1.618c-.369 4.358-.755 7.723-1.196 10.61a56.06 56.06 0 0 1-11.787 26.973 53.328 53.328 0 0 1-30.93 18.571 76.08 76.08 0 0 1-15.355 1.416z"/>
            <path d="M1158.284 427.261l-15.245.11a115.399 115.399 0 0 1-36.777-4.946 79.57 79.57 0 0 1-32.953-20.042 75.385 75.385 0 0 1-19.05-33.814 116.678 116.678 0 0 1-3.678-29.18c0-5.204.129-11.97.533-20.649.386-8.237 1.104-19.508 2.152-33.52 1.005-13.569 2.23-30.798 3.677-51.685 1.447-20.888 3.126-46.698 5.039-77.429a71.925 71.925 0 0 1 6.16-28.573 78.69 78.69 0 0 1-6.289-30.817c-.202-26.018 10.5-49.075 30.12-64.906 16.827-13.552 38.029-20.539 63-20.745 24.402-.18 44.244 6.31 58.992 19.329a73.803 73.803 0 0 1 24.824 55.602 82.223 82.223 0 0 1-20.227 55.162 77.001 77.001 0 0 1 5.406 14.25 111.84 111.84 0 0 1 3.678 28.463c0 5.369-.22 12.65-.773 22.285l-2.06 34.568a4513.666 4513.666 0 0 1-3.677 54.72c-1.52 21.684-3.439 47.819-5.756 78.402-1.14 15.151-6.472 27.581-15.85 37.16-10.409 10.665-24.31 16.108-41.246 16.255z"/>
            <path d="M1020.313 427.371a78.635 78.635 0 0 1-42.607-11.823 60.448 60.448 0 0 1-32.382 9.36l-15.19.11c-26.313.22-47.534-7.263-63.09-22.193-11.144-10.683-24.513-30.027-24.77-61.266 0-3.586.11-8.514.423-15.519.257-6.178.698-13.662 1.268-22.23l1.84-26.367c.625-9.733 1.317-19.631 2.077-29.695 1.38-20.024 2.39-36.646 2.98-49.167l1.452-31.148c.901-15.666 1.839-22.065 3.034-27.36 6.326-27.875 30.047-47.512 57.649-47.807 5.406 0 11.033-.22 16.697-.533 6.325-.35 12.32-.735 17.8-1.158 6.307-.478 12.192-.901 17.727-1.25 6.38-.423 12.283-.662 17.56-.7a155.176 155.176 0 0 1 51.71 7.668 109.702 109.702 0 0 1 70.502 70.809 150.027 150.027 0 0 1 7.172 46.188 152.344 152.344 0 0 1-14.877 68.75 119.66 119.66 0 0 1-6.234 11.16c4.211 6.234 7.356 10.941 9.581 14.416 3.144 4.873 12.725 19.693 12.872 39.201a67.752 67.752 0 0 1-11.879 37.933 88.72 88.72 0 0 1-19.786 21.219 103.862 103.862 0 0 1-25.744 14.58 98.02 98.02 0 0 1-35.785 6.822z"/>
            <path d="M833.024 426.783l-69.877.552c-25.744.202-46.523-6.988-62.043-21.366-16.44-15.188-25.616-37.014-25.745-61.45 0-5.516.203-13.386.81-24.86.551-10.572 1.305-22.524 2.225-35.486.919-12.963 1.838-26.165 2.684-40.342a4741.55 4741.55 0 0 1 2.74-41.04c.901-12.724 1.618-23.48 2.115-32.361.644-11.878.662-15.335.644-15.905-.276-34.604 26.075-61.928 60.002-62.203l106.838-.846a60.318 60.318 0 0 1 43.283 17.648 60.307 60.307 0 0 1 17.676 43.268v3.862l-1.067 18.387a85.128 85.128 0 0 1-16.347 46.537 68.291 68.291 0 0 1-4.542 5.517 64.883 64.883 0 0 1 1.508 13.44l-.11 3.862-1.067 18.387a91.744 91.744 0 0 1-3.31 19.95 61.779 61.779 0 0 1 22.802 47.64l-.092 3.862-1.067 18.387a85.33 85.33 0 0 1-16.347 46.556c-9.654 12.559-28.043 27.802-61.713 28.004z"/>
            <path d="M586.193 427.206l-16.33.11c-26.314.202-47.553-7.263-63.11-22.211-11.143-10.702-24.512-30.008-24.75-61.266 0-3.678.091-8.734.404-15.795.276-6.27.699-13.735 1.269-22.248l1.838-26.275c.638-9.598 1.33-19.405 2.078-29.42.92-12.19 1.692-22.597 2.317-31.258.607-8.256 1.085-15.555 1.435-21.678.367-6.423.686-11.805.956-16.144.22-3.346.368-6.325.423-8.918 0-3.273.165-6.343.239-9.193v-6.417a61.227 61.227 0 0 1 24.825-50.16 59.895 59.895 0 0 1 34.846-11.603c4.358 0 9.195-.22 14.6-.515 5.977-.349 11.935-.735 17.911-1.176 6.547-.478 12.873-.901 18.94-1.269 6.768-.423 12.873-.644 18.39-.699a158.156 158.156 0 0 1 51.212 7.355 110.334 110.334 0 0 1 45.07 27.875 112.637 112.637 0 0 1 26.058 43.927 156.278 156.278 0 0 1 7.153 46.96c.165 17.088-2 34.118-6.436 50.62a143.414 143.414 0 0 1-24.09 49.645 127.34 127.34 0 0 1-45.144 37.124 110.136 110.136 0 0 1-29.9 10.903l-.551 7.19a63.543 63.543 0 0 1-13.92 33.52 58.68 58.68 0 0 1-45.733 21.016z"/>
            <path d="M395.538 427.316c-20.227.147-38.616-2.979-54.522-9.34a114.82 114.82 0 0 1-43.765-30.119 117.675 117.675 0 0 1-24.843-44.257 156.149 156.149 0 0 1-6.675-44.552c0-5.516.128-12.577.515-21.33.367-8.255.9-17.21 1.563-26.569.637-9.083 1.324-18.552 2.06-28.408.735-9.671 1.421-18.908 2.059-27.71.637-8.8 1.25-16.854 1.838-24.16.626-8.035.883-12.264.975-14.378.405-9.543 2.096-23.996 11.806-37.73a59.14 59.14 0 0 1 48.38-25.246l16.697-.129c21.22-.184 38.948 4.578 52.997 14.158a59.582 59.582 0 0 1 39.59-14.893l16.679-.148a109.66 109.66 0 0 1 32.658 4.082 76.002 76.002 0 0 1 32.052 18.682 70.292 70.292 0 0 1 19.29 36.094 102.683 102.683 0 0 1 1.93 18.993c0 3.678-.092 9.194-.367 17.45-.233 7.355-.521 15.788-.865 25.3-.35 9.985-.809 20.226-1.324 30.247-.551 10.646-1.268 20.355-2.096 28.85-.662 7.207-1.655 15.206-2.979 23.903a207.28 207.28 0 0 1-7.484 31.497 170.717 170.717 0 0 1-14.969 33.612 131.415 131.415 0 0 1-28.208 33.758 132.953 132.953 0 0 1-40.951 23.683 154.477 154.477 0 0 1-52.04 8.66z"/>
            <path d="M165.827 455.724a229.565 229.565 0 0 1-57.538-6.49 219.058 219.058 0 0 1-46.818-17.137 138.503 138.503 0 0 1-38.065-27.783C8.401 388.335.715 370.813.568 352.26c-.203-26.146 1.323-44.81 4.799-58.71 3.825-15.316 13.166-32.27 28.668-42.86a155.699 155.699 0 0 1-7.98-13.533c-10.004-19.086-15.19-42.4-15.392-69.264-.24-29.53 5.645-55.713 17.488-77.87a158.39 158.39 0 0 1 44.574-52.568 172.143 172.143 0 0 1 59.506-28.74A239.827 239.827 0 0 1 191.553.588c43.213-.33 77.563 10.5 102.075 32.233 25.744 22.837 39.48 53.837 39.757 89.692.33 40.636-16.348 65.348-30.378 78.918a96.961 96.961 0 0 1-8.514 7.354 156.143 156.143 0 0 1 16.035 23.021c11.125 19.435 16.862 42.897 17.064 69.76a163.632 163.632 0 0 1-9.838 58.03 141.579 141.579 0 0 1-32.143 50.878 145.659 145.659 0 0 1-53.144 33.832c-19.602 7.373-42.018 11.216-66.64 11.418z"/>
        </g>
        <g fill="#F90362" fill-rule="nonzero">
            <path d="M2038.33 377.25c-19.468.146-35.652-2.446-48.549-7.778a76.943 76.943 0 0 1-30.877-22.173 84.454 84.454 0 0 1-16.367-33.093 171.827 171.827 0 0 1-4.983-40.816 198.296 198.296 0 0 1 5.756-49.255 113.978 113.978 0 0 1 20.596-43.095 106.915 106.915 0 0 1 38.932-30.759c16.158-7.795 36.387-11.79 60.687-11.987 35.553-.294 61.097 8.09 76.63 25.151 15.534 17.062 23.417 41.085 23.65 72.071a237.113 237.113 0 0 1-1.674 28.7 154.405 154.405 0 0 1-6.951 31.255 147.747 147.747 0 0 1-14.142 30.262 103.573 103.573 0 0 1-22.877 26.163 108.508 108.508 0 0 1-33.506 18.275c-13.106 4.572-28.548 6.931-46.325 7.078zm18.39-183.193c-10.74.073-19.26 2.862-25.562 8.365a52.528 52.528 0 0 0-14.234 19.801 88.324 88.324 0 0 0-6.16 24.343 194.838 194.838 0 0 0-1.306 21.584c.147 18.386 3.212 31.905 9.195 40.558 5.983 8.654 14.491 12.944 25.525 12.87a33.474 33.474 0 0 0 24.257-9.395 64.109 64.109 0 0 0 14.712-22.32c3.48-8.76 5.829-17.929 6.988-27.284a184.49 184.49 0 0 0 1.71-23.9c-.11-13.974-2.808-24.913-8.092-32.819-5.284-7.905-14.282-11.84-26.996-11.803h-.037zM1644.566 300.876c-.736 12.87-1.625 25.127-2.667 36.771-1.042 11.644-1.808 21.78-2.299 30.41-.257 3.346-.937 5.515-2.06 6.71-1.121 1.195-3.512 1.71-7.19 1.747l-15.227.11a69.217 69.217 0 0 1-21.405-2.555 31.504 31.504 0 0 1-13.186-7.649 27.043 27.043 0 0 1-6.878-12.318 68.069 68.069 0 0 1-2.042-16.951c0-4.192.16-10.13.48-17.816.318-7.685 1.01-18.312 2.077-31.88 1.005-13.569 2.231-30.765 3.678-51.59 1.447-20.824 3.145-46.625 5.094-77.402.233-6.129.914-9.763 2.041-10.903.828-.846 3.09-1.287 6.768-1.324l16.55-.128a61.933 61.933 0 0 1 20.781 2.776 39.412 39.412 0 0 1 13.186 7.354 25.74 25.74 0 0 1 7.356 10.848 50.604 50.604 0 0 1 2.648 12.961c8.055-15.15 17.287-25.42 27.695-30.814a80.325 80.325 0 0 1 36.78-8.255c7.398-.098 14.788.518 22.068 1.839a60.273 60.273 0 0 1 19.107 6.986 48.03 48.03 0 0 1 14.51 13.09 52.943 52.943 0 0 1 8.625 20.684c8.582-16.277 18.09-27.602 28.522-33.976 10.434-6.374 23.533-9.622 39.3-9.744 8.472-.102 16.93.749 25.212 2.537a53.926 53.926 0 0 1 21.038 9.193 46.627 46.627 0 0 1 14.326 18.11c3.58 7.672 5.419 17.233 5.517 28.68.073 8.654-.264 19.275-1.012 31.862a3089.663 3089.663 0 0 1-2.74 41.092 3485.873 3485.873 0 0 1-3.439 45.302c-1.275 15.492-2.286 30.378-3.034 44.658-.257 3.088-.533 5.515-.79 7.133a7.886 7.886 0 0 1-1.453 3.788 5.333 5.333 0 0 1-3.164 1.71 31.95 31.95 0 0 1-5.921.46l-13.553.11a79.095 79.095 0 0 1-22.068-2.354 30.53 30.53 0 0 1-13.186-7.023 25.279 25.279 0 0 1-6.657-11.473 58.912 58.912 0 0 1-2.023-15.7c0-3.678.129-8.807.497-15.518.367-6.71.882-13.973 1.526-21.805.644-7.832 1.287-15.94 1.839-24.324.552-8.384 1.269-13.79 1.839-20.923.57-7.133 1.177-13.348 1.545-18.66.367-5.314.57-8.808.551-10.499a40.44 40.44 0 0 0-4.597-19.25c-2.992-5.552-8.73-8.297-17.213-8.236a27.736 27.736 0 0 0-18.997 7.354 55.303 55.303 0 0 0-13.388 19.801 144.299 144.299 0 0 0-8.661 29.84 251.528 251.528 0 0 0-4.34 34.932 6183.407 6183.407 0 0 1-1.84 29.784c-.717 11.179-1.636 25.17-2.61 41.937-.258 3.09-.534 5.516-.791 7.134a7.96 7.96 0 0 1-1.453 3.787 5.278 5.278 0 0 1-3.163 1.692 31.675 31.675 0 0 1-5.922.478l-13.553.11a79.537 79.537 0 0 1-22.068-2.353 30.732 30.732 0 0 1-13.186-7.023 25.223 25.223 0 0 1-6.657-11.473 59.647 59.647 0 0 1-2.041-15.701c0-5.59.429-13.77 1.287-24.545.858-10.773 1.76-21.958 2.704-33.553.882-11.601 1.838-20.224 2.684-30.777.846-10.553 1.343-18.091 1.306-22.853a40.679 40.679 0 0 0-4.597-19.25c-3.016-5.552-8.754-8.298-17.213-8.236a25.988 25.988 0 0 0-19.42 8.53 65.412 65.412 0 0 0-13.149 22.523 149.849 149.849 0 0 0-8.202 30.611 375.746 375.746 0 0 0-4.082 39.4zM1276.768 303.818a1317.656 1317.656 0 0 1-2.667 36.77c-1.017 11.657-1.814 21.763-2.39 30.318-.258 3.365-.957 5.608-2.06 6.73-1.104 1.12-3.531 1.71-7.19 1.728l-15.246.128a70.358 70.358 0 0 1-21.406-2.555 31.853 31.853 0 0 1-13.185-7.667 27.41 27.41 0 0 1-6.878-12.3 68.358 68.358 0 0 1-2.043-16.97c0-4.192.13-10.13.498-17.815.368-7.685 1.048-18.386 2.078-31.88 1.03-13.495 2.225-30.76 3.678-51.59 1.453-20.83 3.071-46.625 5.094-77.384.22-6.129.895-9.769 2.023-10.921.846-.846 3.09-1.287 6.767-1.305l16.551-.13a62.062 62.062 0 0 1 20.781 2.759 39.78 39.78 0 0 1 13.167 7.354 25.74 25.74 0 0 1 7.356 10.847 50.715 50.715 0 0 1 2.63 12.98c8.08-15.161 17.317-25.439 27.713-30.832a80.288 80.288 0 0 1 36.78-8.255c7.399-.11 14.79.507 22.068 1.839a59.758 59.758 0 0 1 19.126 6.968 47.975 47.975 0 0 1 14.49 13.09 52.961 52.961 0 0 1 8.644 20.684c8.582-16.265 18.084-27.59 28.505-33.977 10.42-6.386 23.453-9.554 39.096-9.505 8.472-.097 16.928.748 25.213 2.519a54.386 54.386 0 0 1 21.02 9.193 46.72 46.72 0 0 1 14.344 18.128c3.58 7.648 5.419 17.202 5.517 28.662.073 8.678-.264 19.305-1.012 31.88a4594.388 4594.388 0 0 1-2.63 40.89 2943.85 2943.85 0 0 1-3.457 45.302c-1.3 15.492-2.305 30.385-3.016 44.676-.276 3.07-.533 5.516-.79 7.134a8.07 8.07 0 0 1-1.453 3.769 5.407 5.407 0 0 1-3.163 1.71 31.95 31.95 0 0 1-5.922.46l-13.553.11a78.93 78.93 0 0 1-22.068-2.335 30.732 30.732 0 0 1-13.186-7.024 25.223 25.223 0 0 1-6.657-11.472 59.776 59.776 0 0 1-2.041-15.72c0-3.677.172-8.843.515-15.499.343-6.655.852-13.93 1.526-21.823.625-7.814 1.27-15.94 1.84-24.324.57-8.384 1.286-13.789 1.838-20.923.552-7.133 1.159-13.347 1.545-18.66.386-5.314.57-8.807.552-10.48a40.679 40.679 0 0 0-4.598-19.25c-3.016-5.577-8.753-8.329-17.213-8.255a27.699 27.699 0 0 0-18.997 7.354 55.395 55.395 0 0 0-13.387 19.801 144.299 144.299 0 0 0-8.662 29.84 249.01 249.01 0 0 0-4.358 34.932c-.49 8.678-1.104 18.606-1.84 29.784a8427.687 8427.687 0 0 0-2.63 41.938c-.257 3.088-.514 5.515-.79 7.133a7.702 7.702 0 0 1-1.453 3.787 5.333 5.333 0 0 1-3.163 1.71 31.804 31.804 0 0 1-5.921.46l-13.535.11a79.85 79.85 0 0 1-22.068-2.335 30.732 30.732 0 0 1-13.186-7.023 25.518 25.518 0 0 1-6.657-11.49 59.665 59.665 0 0 1-2.023-15.702c0-5.59.43-13.764 1.287-24.526.859-10.762 1.754-21.946 2.685-33.553.901-11.602 1.84-20.224 2.704-30.778.864-10.553 1.342-18.11 1.305-22.871a40.605 40.605 0 0 0-4.432-19.213c-2.991-5.577-8.729-8.328-17.213-8.255a25.988 25.988 0 0 0-19.4 8.53 65.357 65.357 0 0 0-13.168 22.541 151.044 151.044 0 0 0-8.202 30.612 380.286 380.286 0 0 0-4.027 39.437zM1142.65 377.93a69.088 69.088 0 0 1-21.406-2.593 31.412 31.412 0 0 1-13.185-7.722 27.576 27.576 0 0 1-6.878-12.428 69.591 69.591 0 0 1-2.041-17.135c0-4.23.165-10.229.496-18 .331-7.77 1.018-18.496 2.06-32.174 1.03-13.704 2.256-31.072 3.678-52.105 1.422-21.032 3.12-47.078 5.094-78.138.233-6.214.913-9.89 2.041-11.03.828-.847 3.09-1.288 6.767-1.325l16.551-.128a74.055 74.055 0 0 1 21.388 2.371 29.977 29.977 0 0 1 13.185 7.52 27.576 27.576 0 0 1 6.878 12.208 63.453 63.453 0 0 1 2.024 16.124c0 4.247-.203 10.59-.7 19.066-.496 8.475-1.195 19.966-2.06 34.51-.864 14.542-2.059 32.615-3.677 54.218-1.619 21.603-3.44 47.655-5.738 78.156-.257 3.383-.938 5.644-2.06 6.784-1.121 1.14-3.512 1.71-7.172 1.747l-15.245.073zm-32.33-289.093c-.073-11.288 3.954-20.212 12.083-26.769 8.128-6.557 19.125-9.891 32.991-10.002 12.138-.098 20.977 2.299 26.518 7.19a25.185 25.185 0 0 1 8.423 19.616 33.421 33.421 0 0 1-11.438 26.126c-7.712 6.986-19.046 10.535-34.003 10.645-22.89.184-34.414-8.751-34.573-26.806zM1060.153 337.592a1368.884 1368.884 0 0 0-10.887-16.143l-21.13-29.802a67.61 67.61 0 0 0 25.746-27.836 100.253 100.253 0 0 0 9.82-45.688 97.42 97.42 0 0 0-4.708-30.262 61.24 61.24 0 0 0-14.712-24.011 65.03 65.03 0 0 0-25.47-15.26 109.169 109.169 0 0 0-35.768-4.983c-4.377 0-9.36.24-14.822.589s-11.034.753-17.213 1.213a917.13 917.13 0 0 1-18.813 1.214c-6.676.367-12.873.551-18.942.588a11.033 11.033 0 0 0-10.813 9.395c-.423 1.838-1.103 5.883-1.839 18.808l-1.434 30.207c-.607 12.76-1.637 29.546-3.071 49.825a3852.278 3852.278 0 0 0-2.06 28.883v1.269c-.607 8.972-1.177 17.227-1.692 24.82-.552 8.016-.956 15.003-1.214 20.757-.257 5.755-.386 10.167-.37 12.723 0 10.94 3.313 19.47 9.547 25.372 6.234 5.902 15.852 8.715 29.424 8.623l15.19-.129a11.293 11.293 0 0 0 9.01-3.677 13.217 13.217 0 0 0 2.815-7.354v-.864c0-.11 0-1.25.514-6.803.387-4.229.736-9.505 1.122-16.106.386-6.6.791-13.623 1.324-21.731.393-5.736.779-11.675 1.159-17.816 1.839.203 3.678.386 5.682.534 2.152 8.236 4.414 16.252 6.768 23.9a139.232 139.232 0 0 0 10.445 25.483 68.727 68.727 0 0 0 14.436 18.753 31.396 31.396 0 0 0 21.664 8.053 51.227 51.227 0 0 0 18.39-3.365 56.461 56.461 0 0 0 13.829-7.648 40.14 40.14 0 0 0 9.195-9.377 18.107 18.107 0 0 0 3.678-10.001c.073-3.273-1.508-7.06-4.8-12.153zm-63.151-105.55a24.578 24.578 0 0 1-3.347 8.898 20.999 20.999 0 0 1-6.915 6.766c-4.597 2.886-12.247 3.4-22.546 1.71.534-8.918.993-17.448 1.343-25.428.313-7.188.588-13.66.864-19.396l3.678-.405a72.363 72.363 0 0 1 7.466-.478c7.871 0 13.407 1.398 16.018 4.229 2.611 2.831 4.285 7.906 4.34 14.359a57.9 57.9 0 0 1-.901 9.744zM832.615 378.775l-69.882.57c-13.314.11-22.84-2.684-29.166-8.53-6.326-5.847-9.71-14.323-9.784-24.95 0-4.339.202-11.472.754-21.805a1949.382 1949.382 0 0 1 2.17-34.583c.901-12.63 1.84-26.456 2.722-40.779.883-14.322 1.839-28.019 2.722-40.595.882-12.575 1.636-23.9 2.151-33.24.515-9.34.773-15.812.754-19.158a11.36 11.36 0 0 1 11.88-12.098l106.864-.864c2.46-.049 4.887.588 7.006 1.839a11.03 11.03 0 0 1 5.058 9.67v.497l-1.067 18.385a34.577 34.577 0 0 1-6.363 19.176c-4.358 5.81-12.082 8.678-23.594 8.77l-35.254.276-1.839 29.417 35.456-.276c2.464-.07 4.895.568 7.007 1.838a10.92 10.92 0 0 1 5.057 9.653v.496l-1.085 18.386a34.724 34.724 0 0 1-6.345 19.176c-4.358 5.79-12.082 8.66-23.612 8.751l-19.788.165-2.041 31.826 59.105-.497c2.637-.001 5.21.822 7.356 2.354a11.03 11.03 0 0 1 4.653 9.192v.497l-1.067 18.385a34.743 34.743 0 0 1-6.363 19.194c-4.23 5.902-11.953 8.77-23.465 8.862zM698.718 187.42a60.054 60.054 0 0 0-40.182-40.19 111.45 111.45 0 0 0-35.713-4.854c-4.561 0-9.876.239-15.852.606-5.977.368-11.99.754-18.298 1.214-6.308.46-12.45.882-18.685 1.232-6.234.349-11.843.551-16.955.588a12.102 12.102 0 0 0-7.099 2.445 11.14 11.14 0 0 0-4.487 9.487v8.347c0 2.574-.165 5.626-.239 8.825-.073 3.199-.257 6.784-.515 10.792a1890.33 1890.33 0 0 0-.938 15.775c-.349 6.288-.864 13.862-1.49 22.375-.624 8.512-1.415 19.14-2.335 31.255a3529.488 3529.488 0 0 0-2.04 29.03l-1.84 26.182c-.552 8.09-.975 15.15-1.214 20.959-.239 5.81-.386 10.388-.369 13.164.093 11.031 3.293 19.672 9.527 25.63 6.235 5.956 15.871 8.806 29.424 8.695l16.33-.11a11.22 11.22 0 0 0 9.012-3.677 13.548 13.548 0 0 0 2.832-7.354l3.273-52.27a72.216 72.216 0 0 0 13.314 1.011c15.595-.128 29.259-3.07 40.66-8.733a79.22 79.22 0 0 0 28.137-22.926 93.04 93.04 0 0 0 15.723-32.322 136.903 136.903 0 0 0 4.69-36.973 82.992 82.992 0 0 0-4.671-28.203zm-74.314 72.236a20.508 20.508 0 0 1-12.873 3.677 70.965 70.965 0 0 1-7.356-.368c-.717 0-1.416-.147-2.133-.257a1571.845 1571.845 0 0 0 1.729-32.67c.38-9.524.723-17.945 1.03-25.262l4.156-.442c2.979-.312 5.719-.478 8.128-.496 8 0 13.553 1.434 16.054 4.302 2.796 3.236 4.248 8.402 4.304 15.407a90.95 90.95 0 0 1-1.03 12.76 45.57 45.57 0 0 1-4.101 13.31 28.168 28.168 0 0 1-7.908 10.04zM394.052 380.099c-14.859.129-27.86-1.839-38.619-5.902a71.355 71.355 0 0 1-27.125-17.374 67.471 67.471 0 0 1-15.318-25.74 100.141 100.141 0 0 1-4.745-30.372c0-4.67.129-11.032.496-18.698.368-7.667.92-16.308 1.6-25.299.68-8.99 1.398-18.385 2.189-28.203.79-9.818 1.508-19.029 2.188-27.854.68-8.825 1.324-16.804 1.84-23.9.514-7.098.974-12.282 1.158-15.94.257-5.517 1.14-8.991 2.96-11.418a12.194 12.194 0 0 1 9.931-4.744l17.728-.128c15.65-.13 26.242 3.272 32.385 10.424 5.645 6.582 8.57 16.05 8.661 28.167 0 .386 0 1.176-.423 8.622-.294 4.83-.68 10.75-1.158 17.76-.497 6.969-.957 14.544-1.435 22.725-.478 8.182-.956 16.05-1.434 23.441-.478 7.391-.846 13.79-1.122 19.305-.331 6.692-.405 9.505-.386 10.682 0 3.328.202 7.207.552 11.51a44.391 44.391 0 0 0 2.317 11.178 16.216 16.216 0 0 0 4.781 7.207c1.655 1.47 4.432 2.188 8.239 2.15a16.185 16.185 0 0 0 12.321-4.871 41.347 41.347 0 0 0 8.92-14.525 89.133 89.133 0 0 0 4.762-18.771c.883-6.564 1.526-12.061 1.931-16.345.754-10.37 1.6-21.162 2.483-32.248a3447.074 3447.074 0 0 0 2.317-31.053c.68-9.634 1.195-17.889 1.563-25.133.368-7.244.552-11.877.533-14.359 0-5.68.46-8.953 1.84-11.325 1.14-2.041 4.063-5.516 10.776-5.516l17.71-.129a70.34 70.34 0 0 1 19.492 2.004 30.052 30.052 0 0 1 12.671 6.62 20.352 20.352 0 0 1 6.198 10.755 49.464 49.464 0 0 1 1.01 9.689c0 2.813-.091 7.832-.367 15.388-.276 7.557-.57 15.812-.938 25.244a1811.13 1811.13 0 0 1-1.379 29.416c-.552 9.947-1.269 19.066-2.078 26.806-.607 6.27-1.545 13.311-2.795 20.923a148.58 148.58 0 0 1-6.05 23.9 117.654 117.654 0 0 1-11.31 23.902 84.249 84.249 0 0 1-18.868 21.235 92.343 92.343 0 0 1-27.806 15.02 119.34 119.34 0 0 1-38.196 5.774zM191.91 51.956c30.135-.233 52.565 6.165 67.29 19.194 14.723 13.03 22.153 30.128 22.288 51.296.147 17.956-4.714 31.708-14.584 41.257-9.869 9.548-24.109 14.39-42.72 14.524-5.774 0-9.452-.533-11.033-1.6-1.619-1.103-2.428-3.42-2.465-6.95 0-3.198-.275-7.366-.827-12.501a53.51 53.51 0 0 0-3.678-14.874 29.987 29.987 0 0 0-9.195-12.208c-4.193-3.334-9.98-4.97-17.36-4.909a43.388 43.388 0 0 0-27.346 9.597 29.414 29.414 0 0 0-12.008 24.398 26.252 26.252 0 0 0 10.04 21.088 114.023 114.023 0 0 0 24.9 14.947c9.968 4.584 20.83 9.23 32.587 13.936a135.34 135.34 0 0 1 32.642 18.753 98.479 98.479 0 0 1 25.01 29.141c6.658 11.657 10.06 26.463 10.207 44.42a111.079 111.079 0 0 1-6.657 39.749 89.552 89.552 0 0 1-20.431 32.395 93.994 93.994 0 0 1-34.481 21.676c-13.903 5.246-30.16 7.943-48.77 8.09a178.148 178.148 0 0 1-44.522-4.89 166.455 166.455 0 0 1-35.695-13 87.204 87.204 0 0 1-23.907-17.116c-5.811-6.214-8.741-11.883-8.79-17.006-.27-21.18.821-36.428 3.273-45.743 2.452-9.316 6.823-13.998 13.112-14.047 4.487 0 9.195 1.839 14.234 5.663 5.039 3.824 10.74 8.09 17.194 12.87a118.07 118.07 0 0 0 22.473 12.87 70.982 70.982 0 0 0 29.644 5.515 71.738 71.738 0 0 0 13.223-1.324 36.27 36.27 0 0 0 11.512-4.173 23.629 23.629 0 0 0 8.128-7.759 20.68 20.68 0 0 0 2.887-11.62 23.292 23.292 0 0 0-9.195-19.12 103.744 103.744 0 0 0-23.19-13.054 1379.467 1379.467 0 0 0-30.177-12.263 116.875 116.875 0 0 1-30.215-17.558 88.99 88.99 0 0 1-23.337-28.92c-6.203-11.816-9.372-27.027-9.507-45.633-.172-20.837 3.617-38.505 11.365-53.005a106.642 106.642 0 0 1 29.994-35.668 120.007 120.007 0 0 1 41.69-20.04 186.645 186.645 0 0 1 46.397-6.398z"/>
        </g>
        <path d="M-179-103h2570v661H-179z"/>
    </g>
</svg>
