<svg id="Layer_1" data-name="Layer 1" xmlns="http://www.w3.org/2000/svg" viewBox="0 0 309.97 25.36"><defs><style>.cls-1{fill:#2159a5;}.cls-2{fill:#f37521;}</style></defs><path class="cls-1" d="M56.64.27a16.3,16.3,0,0,1,4.17.47,8,8,0,0,1,2.84,1.32,5,5,0,0,1,1.62,2.08,7,7,0,0,1,.52,2.74,5.41,5.41,0,0,1-.26,1.67,4.84,4.84,0,0,1-.8,1.5,6.19,6.19,0,0,1-1.37,1.26,8.29,8.29,0,0,1-2,1c3.4.77,5.11,2.61,5.11,5.53a7,7,0,0,1-.6,2.91A6.39,6.39,0,0,1,64.14,23a8.41,8.41,0,0,1-2.83,1.52,12.3,12.3,0,0,1-3.85.55H48.09V.27ZM52.71,3.84V11h3.67A6.2,6.2,0,0,0,60,10.16a3.1,3.1,0,0,0,1.21-2.73,3.24,3.24,0,0,0-1.1-2.76,5.73,5.73,0,0,0-3.43-.83Zm4.67,17.65a6.72,6.72,0,0,0,2.16-.31,3.75,3.75,0,0,0,1.4-.83,2.91,2.91,0,0,0,.75-1.2,4.38,4.38,0,0,0,.23-1.46,3.94,3.94,0,0,0-.25-1.45,2.72,2.72,0,0,0-.81-1.1,3.84,3.84,0,0,0-1.42-.69,7.82,7.82,0,0,0-2.08-.24H52.71v7.28Z"/><path class="cls-1" d="M100.57,12.68a13.91,13.91,0,0,1-.9,5.06,11.79,11.79,0,0,1-2.55,4,11.58,11.58,0,0,1-4,2.65,14.38,14.38,0,0,1-10.28,0,11.53,11.53,0,0,1-4-2.65,11.84,11.84,0,0,1-2.57-4,13.71,13.71,0,0,1-.91-5.06,13.65,13.65,0,0,1,.91-5,12,12,0,0,1,2.57-4,11.67,11.67,0,0,1,4-2.65A13.43,13.43,0,0,1,88,0a14,14,0,0,1,3.55.44,12.56,12.56,0,0,1,3.06,1.23A11.59,11.59,0,0,1,99,6.16a12.38,12.38,0,0,1,1.18,3.06A14.39,14.39,0,0,1,100.57,12.68Zm-4.72,0A11.26,11.26,0,0,0,95.3,9a7.76,7.76,0,0,0-1.56-2.76,6.66,6.66,0,0,0-2.46-1.73,9.21,9.21,0,0,0-6.54,0,6.78,6.78,0,0,0-2.47,1.73A7.78,7.78,0,0,0,80.7,9a11.26,11.26,0,0,0-.55,3.66,11.32,11.32,0,0,0,.55,3.67,7.6,7.6,0,0,0,1.57,2.74,6.78,6.78,0,0,0,2.47,1.73,9.21,9.21,0,0,0,6.54,0,6.66,6.66,0,0,0,2.46-1.73,7.58,7.58,0,0,0,1.56-2.74A11.32,11.32,0,0,0,95.85,12.68Z"/><path class="cls-1" d="M120.84,21.37a6,6,0,0,0,2.39-.45A5,5,0,0,0,125,19.67a5.6,5.6,0,0,0,1.11-2,8.26,8.26,0,0,0,.38-2.57V.27h4.62V15.14a11.56,11.56,0,0,1-.71,4.09,9.37,9.37,0,0,1-2,3.24,9.19,9.19,0,0,1-3.23,2.13,12.54,12.54,0,0,1-8.6,0,9.19,9.19,0,0,1-3.23-2.13,9.37,9.37,0,0,1-2-3.24,11.56,11.56,0,0,1-.71-4.09V.27h4.62V15.12a8.21,8.21,0,0,0,.38,2.57,5.6,5.6,0,0,0,1.12,2,5,5,0,0,0,1.79,1.26A6,6,0,0,0,120.84,21.37Z"/><path class="cls-1" d="M155.76,4.79a1.56,1.56,0,0,1-.44.52.94.94,0,0,1-.57.16,1.44,1.44,0,0,1-.78-.26c-.28-.18-.62-.38-1-.59A7.9,7.9,0,0,0,151.6,4a5.92,5.92,0,0,0-1.84-.26,5.66,5.66,0,0,0-1.69.23,3.57,3.57,0,0,0-1.21.64,2.72,2.72,0,0,0-.73,1,3.22,3.22,0,0,0-.24,1.26,2.22,2.22,0,0,0,.49,1.46,4.2,4.2,0,0,0,1.3,1,11.76,11.76,0,0,0,1.84.73c.68.22,1.39.45,2.11.7a20.28,20.28,0,0,1,2.11.86,7,7,0,0,1,1.83,1.23,5.68,5.68,0,0,1,1.3,1.83,6.3,6.3,0,0,1,.49,2.63,8.44,8.44,0,0,1-.58,3.15A7.18,7.18,0,0,1,155.1,23a8,8,0,0,1-2.7,1.72,9.92,9.92,0,0,1-3.66.62,11.37,11.37,0,0,1-2.33-.23,11.75,11.75,0,0,1-2.21-.66,11.61,11.61,0,0,1-2-1,9.47,9.47,0,0,1-1.65-1.34l1.36-2.21a1.35,1.35,0,0,1,.45-.4,1.09,1.09,0,0,1,.58-.17,1.63,1.63,0,0,1,.93.36c.33.23.72.49,1.18.78a10.08,10.08,0,0,0,1.61.78,6.23,6.23,0,0,0,2.2.35,4.52,4.52,0,0,0,3.06-.94A3.34,3.34,0,0,0,153,18a2.54,2.54,0,0,0-.49-1.6,4,4,0,0,0-1.3-1,10.26,10.26,0,0,0-1.83-.71q-1-.28-2.1-.63a17.81,17.81,0,0,1-2.09-.83,6.88,6.88,0,0,1-1.84-1.25A5.54,5.54,0,0,1,142.08,10a7.3,7.3,0,0,1-.49-2.86,6.78,6.78,0,0,1,.54-2.64A6.7,6.7,0,0,1,143.7,2.2,7.5,7.5,0,0,1,146.24.6,9.29,9.29,0,0,1,149.7,0a11.48,11.48,0,0,1,4.05.69,8.91,8.91,0,0,1,3.16,1.92Z"/><path class="cls-1" d="M180.8,4.79a1.56,1.56,0,0,1-.44.52.94.94,0,0,1-.57.16,1.44,1.44,0,0,1-.78-.26c-.28-.18-.62-.38-1-.59a8.26,8.26,0,0,0-1.36-.6,6,6,0,0,0-1.85-.26,5.64,5.64,0,0,0-1.68.23,3.57,3.57,0,0,0-1.21.64,2.72,2.72,0,0,0-.73,1,3.22,3.22,0,0,0-.24,1.26,2.22,2.22,0,0,0,.49,1.46,4.2,4.2,0,0,0,1.3,1,12,12,0,0,0,1.83.73c.69.22,1.39.45,2.11.7a19.58,19.58,0,0,1,2.12.86,7.17,7.17,0,0,1,1.83,1.23,5.68,5.68,0,0,1,1.3,1.83,6.46,6.46,0,0,1,.49,2.63,8.64,8.64,0,0,1-.58,3.15A7.18,7.18,0,0,1,180.14,23a8,8,0,0,1-2.7,1.72,10,10,0,0,1-3.66.62,11.3,11.3,0,0,1-2.33-.23,11.75,11.75,0,0,1-2.21-.66,11.61,11.61,0,0,1-2-1,9.11,9.11,0,0,1-1.65-1.34L167,19.89a1.42,1.42,0,0,1,.44-.4,1.15,1.15,0,0,1,.59-.17,1.61,1.61,0,0,1,.92.36c.34.23.73.49,1.19.78a10.38,10.38,0,0,0,1.6.78,6.33,6.33,0,0,0,2.21.35,4.49,4.49,0,0,0,3.05-.94A3.34,3.34,0,0,0,178.05,18a2.54,2.54,0,0,0-.48-1.6,4,4,0,0,0-1.3-1,10.09,10.09,0,0,0-1.84-.71c-.68-.19-1.38-.4-2.09-.63a17.81,17.81,0,0,1-2.09-.83,6.88,6.88,0,0,1-1.84-1.25,5.71,5.71,0,0,1-1.3-1.93,7.5,7.5,0,0,1-.48-2.86,6.78,6.78,0,0,1,.54-2.64,6.7,6.7,0,0,1,1.57-2.28A7.5,7.5,0,0,1,171.28.6a9.29,9.29,0,0,1,3.46-.6,11.48,11.48,0,0,1,4,.69A8.91,8.91,0,0,1,182,2.61Z"/><path class="cls-1" d="M197.26,25.09h-4.64V.27h4.64Z"/><path class="cls-1" d="M235.92.27V25.09h-4.07v-16c0-.64,0-1.33.11-2.08l-7.5,14.09a1.74,1.74,0,0,1-1.63,1h-.65a1.72,1.72,0,0,1-1.63-1L213,6.93l.09,1.12c0,.37,0,.7,0,1v16H209V.27h3.49l.53,0a1.24,1.24,0,0,1,.4.09.87.87,0,0,1,.33.22A1.72,1.72,0,0,1,214,1l7.43,13.78a11.87,11.87,0,0,1,.54,1.14c.17.39.33.79.49,1.2.16-.43.33-.84.5-1.23s.35-.77.55-1.14L230.88,1a1.73,1.73,0,0,1,.29-.41.87.87,0,0,1,.33-.22,1.3,1.3,0,0,1,.41-.09l.53,0Z"/><path class="cls-1" d="M274.57.27V25.09H270.5v-16c0-.64,0-1.33.1-2.08l-7.5,14.09a1.72,1.72,0,0,1-1.63,1h-.65a1.74,1.74,0,0,1-1.63-1L251.61,6.93c0,.38.06.75.08,1.12s0,.7,0,1v16h-4.07V.27h3.48l.54,0a1.3,1.3,0,0,1,.4.09.87.87,0,0,1,.33.22,2.07,2.07,0,0,1,.28.41l7.43,13.78q.28.56.54,1.14c.17.39.33.79.49,1.2.16-.43.32-.84.5-1.23s.35-.77.54-1.14L269.52,1a1.5,1.5,0,0,1,.3-.41.87.87,0,0,1,.33-.22,1.24,1.24,0,0,1,.4-.09l.53,0Z"/><path class="cls-1" d="M310,12.68a13.91,13.91,0,0,1-.9,5.06,11.79,11.79,0,0,1-2.55,4,11.58,11.58,0,0,1-4,2.65,14.38,14.38,0,0,1-10.28,0,11.53,11.53,0,0,1-4-2.65,11.84,11.84,0,0,1-2.57-4,13.71,13.71,0,0,1-.91-5.06,13.65,13.65,0,0,1,.91-5,12,12,0,0,1,2.57-4,11.67,11.67,0,0,1,4-2.65A13.43,13.43,0,0,1,297.41,0,14,14,0,0,1,301,.44,12.56,12.56,0,0,1,304,1.67a11.59,11.59,0,0,1,4.37,4.49,12.38,12.38,0,0,1,1.18,3.06A14.39,14.39,0,0,1,310,12.68Zm-4.72,0A11.26,11.26,0,0,0,304.7,9a7.76,7.76,0,0,0-1.56-2.76,6.66,6.66,0,0,0-2.46-1.73,9.21,9.21,0,0,0-6.54,0,6.78,6.78,0,0,0-2.47,1.73A7.93,7.93,0,0,0,290.1,9a11.26,11.26,0,0,0-.55,3.66,11.32,11.32,0,0,0,.55,3.67,7.75,7.75,0,0,0,1.57,2.74,6.78,6.78,0,0,0,2.47,1.73,9.21,9.21,0,0,0,6.54,0,6.66,6.66,0,0,0,2.46-1.73,7.58,7.58,0,0,0,1.56-2.74A11.32,11.32,0,0,0,305.25,12.68Z"/><polygon class="cls-1" points="0 25.11 17.81 5.18 35.55 25.11 35.55 20.09 17.78 0.04 0 20.02 0 25.11"/><rect class="cls-2" x="14.05" y="16.42" width="7.46" height="8.26"/></svg>