<svg id="Layer_1" data-name="Layer 1" xmlns="http://www.w3.org/2000/svg" viewBox="0 0 313.95 124.2"><defs><style>.cls-1{fill:#fff;}</style></defs><path class="cls-1" d="M10.25,94.12a19.64,19.64,0,0,1,5,.56,9.58,9.58,0,0,1,3.4,1.58,6.16,6.16,0,0,1,2,2.49,8.42,8.42,0,0,1,.61,3.29,6.7,6.7,0,0,1-.3,2,6,6,0,0,1-1,1.79,6.89,6.89,0,0,1-1.65,1.51,9.68,9.68,0,0,1-2.37,1.15q6.12,1.38,6.13,6.63a8.46,8.46,0,0,1-.72,3.5,7.76,7.76,0,0,1-2.1,2.77,10.11,10.11,0,0,1-3.4,1.82,14.78,14.78,0,0,1-4.61.66H0V94.12ZM5.53,98.4V107H9.94a7.38,7.38,0,0,0,4.29-1,3.71,3.71,0,0,0,1.45-3.27,3.87,3.87,0,0,0-1.32-3.31,6.87,6.87,0,0,0-4.11-1Zm5.6,21.15a7.76,7.76,0,0,0,2.59-.37,4.42,4.42,0,0,0,1.68-1,3.79,3.79,0,0,0,.91-1.44,5.62,5.62,0,0,0,.27-1.75,4.74,4.74,0,0,0-.3-1.74,3.25,3.25,0,0,0-1-1.32,4.58,4.58,0,0,0-1.7-.83,9.49,9.49,0,0,0-2.5-.29H5.53v8.72Z"/><path class="cls-1" d="M62.92,109a16.65,16.65,0,0,1-1.08,6.06,14.2,14.2,0,0,1-3.05,4.82A13.82,13.82,0,0,1,54,123.06a17.21,17.21,0,0,1-12.32,0A13.92,13.92,0,0,1,37,119.88a14.12,14.12,0,0,1-3.08-4.82,17.39,17.39,0,0,1,0-12.12A14.26,14.26,0,0,1,37,98.11a14.06,14.06,0,0,1,4.76-3.18,16,16,0,0,1,6.15-1.14,16.68,16.68,0,0,1,4.26.53,14.85,14.85,0,0,1,3.66,1.48,13.83,13.83,0,0,1,3,2.32A14.47,14.47,0,0,1,61,101.18a14.64,14.64,0,0,1,1.41,3.66A17.56,17.56,0,0,1,62.92,109Zm-5.66,0a13.7,13.7,0,0,0-.65-4.4,9.52,9.52,0,0,0-1.88-3.3,8.07,8.07,0,0,0-2.95-2.08,11,11,0,0,0-7.84,0,8.11,8.11,0,0,0-3,2.08,9.22,9.22,0,0,0-1.88,3.3,15,15,0,0,0,0,8.79A8.92,8.92,0,0,0,41,116.68a8.08,8.08,0,0,0,3,2.07,11,11,0,0,0,7.84,0,8,8,0,0,0,2.95-2.07,9.21,9.21,0,0,0,1.88-3.29A13.64,13.64,0,0,0,57.26,109Z"/><path class="cls-1" d="M87.22,119.41a7.5,7.5,0,0,0,2.88-.53,5.82,5.82,0,0,0,2.12-1.51A6.54,6.54,0,0,0,93.55,115a9.64,9.64,0,0,0,.47-3.09V94.12h5.53v17.82a13.73,13.73,0,0,1-.85,4.91,10.89,10.89,0,0,1-6.33,6.44,15.06,15.06,0,0,1-10.31,0,11.11,11.11,0,0,1-3.88-2.55,11.24,11.24,0,0,1-2.45-3.89,13.73,13.73,0,0,1-.85-4.91V94.12h5.53v17.8a9.64,9.64,0,0,0,.47,3.09,6.67,6.67,0,0,0,1.33,2.35,6.1,6.1,0,0,0,2.14,1.52A7.45,7.45,0,0,0,87.22,119.41Z"/><path class="cls-1" d="M129.1,99.53a1.91,1.91,0,0,1-.53.63,1.15,1.15,0,0,1-.69.2A1.79,1.79,0,0,1,127,100c-.34-.22-.74-.45-1.21-.71a9.6,9.6,0,0,0-1.63-.71,6.69,6.69,0,0,0-2.21-.32,6.49,6.49,0,0,0-2,.28,4.09,4.09,0,0,0-1.45.77,3.18,3.18,0,0,0-.88,1.18,3.9,3.9,0,0,0-.28,1.51,2.62,2.62,0,0,0,.58,1.75,4.83,4.83,0,0,0,1.56,1.2,15.26,15.26,0,0,0,2.2.88l2.53.83a25.29,25.29,0,0,1,2.53,1,8.85,8.85,0,0,1,2.2,1.48,6.8,6.8,0,0,1,1.56,2.2,7.59,7.59,0,0,1,.58,3.14,10.24,10.24,0,0,1-.69,3.78,8.89,8.89,0,0,1-2,3.07,9.59,9.59,0,0,1-3.24,2,12,12,0,0,1-4.39.75,14.6,14.6,0,0,1-2.8-.27,14.42,14.42,0,0,1-2.64-.8,14.08,14.08,0,0,1-2.38-1.23,11.65,11.65,0,0,1-2-1.6l1.62-2.66a1.79,1.79,0,0,1,.54-.48,1.35,1.35,0,0,1,.7-.2,2,2,0,0,1,1.11.42c.4.28.87.6,1.42.94a12.27,12.27,0,0,0,1.92.94,7.48,7.48,0,0,0,2.65.42,5.47,5.47,0,0,0,3.66-1.12,4,4,0,0,0,1.3-3.22,3,3,0,0,0-.59-1.92,4.72,4.72,0,0,0-1.55-1.24,11.84,11.84,0,0,0-2.21-.86c-.82-.23-1.66-.48-2.51-.76a20.42,20.42,0,0,1-2.51-1,8.09,8.09,0,0,1-2.2-1.5,7,7,0,0,1-1.55-2.31,8.86,8.86,0,0,1-.59-3.43,8.23,8.23,0,0,1,2.53-5.9,9.23,9.23,0,0,1,3.05-1.92,11.18,11.18,0,0,1,4.15-.72,13.85,13.85,0,0,1,4.86.83,10.89,10.89,0,0,1,3.79,2.3Z"/><path class="cls-1" d="M159.12,99.53a1.9,1.9,0,0,1-.52.63,1.19,1.19,0,0,1-.69.2A1.82,1.82,0,0,1,157,100c-.34-.22-.74-.45-1.2-.71a10.09,10.09,0,0,0-1.64-.71,6.65,6.65,0,0,0-2.21-.32,6.49,6.49,0,0,0-2,.28,4.18,4.18,0,0,0-1.45.77,3.05,3.05,0,0,0-.87,1.18,3.73,3.73,0,0,0-.29,1.51,2.62,2.62,0,0,0,.58,1.75,4.94,4.94,0,0,0,1.56,1.2,15.26,15.26,0,0,0,2.2.88l2.53.83a25.29,25.29,0,0,1,2.53,1,8.85,8.85,0,0,1,2.2,1.48,6.65,6.65,0,0,1,1.56,2.2,7.59,7.59,0,0,1,.58,3.14,10.24,10.24,0,0,1-.69,3.78,8.89,8.89,0,0,1-2,3.07,9.59,9.59,0,0,1-3.24,2,12,12,0,0,1-4.39.75,14.61,14.61,0,0,1-7.82-2.3,12.06,12.06,0,0,1-2-1.6l1.63-2.66a1.64,1.64,0,0,1,.53-.48,1.35,1.35,0,0,1,.7-.2,2,2,0,0,1,1.11.42c.4.28.87.6,1.42.94a12.27,12.27,0,0,0,1.92.94,7.48,7.48,0,0,0,2.65.42,5.45,5.45,0,0,0,3.66-1.12,4,4,0,0,0,1.3-3.22,3,3,0,0,0-.59-1.92,4.72,4.72,0,0,0-1.55-1.24,12,12,0,0,0-2.2-.86c-.83-.23-1.66-.48-2.51-.76a19.94,19.94,0,0,1-2.52-1,8.09,8.09,0,0,1-2.2-1.5,7,7,0,0,1-1.55-2.31,8.86,8.86,0,0,1-.59-3.43,8.23,8.23,0,0,1,2.53-5.9,9.23,9.23,0,0,1,3-1.92,11.19,11.19,0,0,1,4.16-.72,13.83,13.83,0,0,1,4.85.83,10.8,10.8,0,0,1,3.79,2.3Z"/><path class="cls-1" d="M178.85,123.88H173.3V94.12h5.55Z"/><path class="cls-1" d="M225.21,94.12v29.76h-4.87V104.66q0-1.16.12-2.49l-9,16.89a2.08,2.08,0,0,1-2,1.21h-.78a2.08,2.08,0,0,1-2-1.21l-9.09-17c0,.45.08.89.1,1.33s0,.85,0,1.22v19.22H193V94.12h4.17l.64,0a2.36,2.36,0,0,1,.49.1,1.25,1.25,0,0,1,.39.27,2.7,2.7,0,0,1,.34.5l8.91,16.52c.23.44.45.89.64,1.36s.4.94.59,1.44q.28-.77.6-1.47a14.44,14.44,0,0,1,.66-1.37L219.16,95a2.29,2.29,0,0,1,.35-.5,1.41,1.41,0,0,1,.4-.27,2.36,2.36,0,0,1,.49-.1l.63,0Z"/><path class="cls-1" d="M271.55,94.12v29.76h-4.88V104.66a24.76,24.76,0,0,1,.13-2.49l-9,16.89a2.06,2.06,0,0,1-2,1.21h-.78a2.08,2.08,0,0,1-2-1.21l-9.09-17c0,.45.07.89.1,1.33s0,.85,0,1.22v19.22h-4.87V94.12h4.17l.64,0a2.14,2.14,0,0,1,.48.1,1.18,1.18,0,0,1,.4.27,2.7,2.7,0,0,1,.33.5l8.92,16.52c.23.44.44.89.64,1.36s.4.94.59,1.44q.28-.77.6-1.47c.2-.48.42-.93.65-1.37L265.5,95a2.29,2.29,0,0,1,.35-.5,1.28,1.28,0,0,1,.4-.27,2.4,2.4,0,0,1,.48-.1l.64,0Z"/><path class="cls-1" d="M314,109a16.65,16.65,0,0,1-1.08,6.06,14.08,14.08,0,0,1-3.06,4.82,13.78,13.78,0,0,1-4.75,3.18,17.21,17.21,0,0,1-12.32,0,14,14,0,0,1-4.77-3.18,14.27,14.27,0,0,1-3.08-4.82,17.39,17.39,0,0,1,0-12.12A14.42,14.42,0,0,1,288,98.11a14.1,14.1,0,0,1,4.77-3.18,16,16,0,0,1,6.15-1.14,16.68,16.68,0,0,1,4.26.53,14.85,14.85,0,0,1,3.66,1.48,13.54,13.54,0,0,1,3,2.32,14.17,14.17,0,0,1,2.26,3.06,15.45,15.45,0,0,1,1.41,3.66A17.56,17.56,0,0,1,314,109Zm-5.66,0a13.7,13.7,0,0,0-.66-4.4,9.5,9.5,0,0,0-1.87-3.3,8.07,8.07,0,0,0-2.95-2.08,11,11,0,0,0-7.84,0,8.23,8.23,0,0,0-3,2.08,9.52,9.52,0,0,0-1.88,3.3,15,15,0,0,0,0,8.79,9.21,9.21,0,0,0,1.88,3.29,8.21,8.21,0,0,0,3,2.07,11,11,0,0,0,7.84,0,8,8,0,0,0,2.95-2.07,9.19,9.19,0,0,0,1.87-3.29A13.63,13.63,0,0,0,308.34,109Z"/><polygon class="cls-1" points="115.06 63.15 159.94 12.93 204.64 63.15 204.64 50.49 159.85 -0.02 115.06 50.32 115.06 63.15"/><rect class="cls-1" x="150.45" y="41.24" width="18.8" height="20.82"/></svg>